<svg xmlns="http://www.w3.org/2000/svg" version="1.1" xmlns:xlink="http://www.w3.org/1999/xlink" xmlns:svgjs="http://svgjs.dev/svgjs" viewBox="0 0 800 800" id="qqquad"><g shape-rendering="crispEdges" stroke-linejoin="round" fill="none" stroke-width="1.5" stroke="hsla(220, 62%, 45%, 0.1)"><polygon points="800,0 800,200 600,200"></polygon><polygon points="600,200 600,0 400,200"></polygon><polygon points="600,300 500,200 600,200"></polygon><polygon points="500,300 400,200 500,200"></polygon><polygon points="500,400 400,300 400,400"></polygon><polygon points="500,400 600,300 500,300"></polygon><polygon points="800,400 800,200 600,400"></polygon><polygon points="200,200 400,200 400,0"></polygon><polygon points="0,200 0,0 200,0"></polygon><polygon points="200,200 0,400 0,200"></polygon><polygon points="300,200 400,300 300,300"></polygon><polygon points="200,300 300,200 300,300"></polygon><polygon points="200,400 200,300 300,400"></polygon><polygon points="400,400 300,400 400,300"></polygon><polygon points="200,600 400,400 200,400"></polygon><polygon points="200,600 200,400 0,600"></polygon><polygon points="200,600 0,800 0,600"></polygon><polygon points="200,600 400,800 400,600"></polygon><polygon points="800,400 800,600 600,400"></polygon><polygon points="600,400 500,400 600,500"></polygon><polygon points="500,500 400,400 400,500"></polygon><polygon points="400,500 500,600 500,500"></polygon><polygon points="500,600 600,500 600,600"></polygon><polygon points="600,600 600,800 400,800"></polygon><polygon points="600,600 800,800 800,600"></polygon></g><g fill="hsls(220, 62%, 45%, 0.25)" stroke-width="3" stroke="hsla(220, 50%, 80%, 0.1)"></g></svg>