<svg xmlns="http://www.w3.org/2000/svg" version="1.1" xmlns:xlink="http://www.w3.org/1999/xlink" xmlns:svgjs="http://svgjs.dev/svgjs" viewBox="0 0 800 800" id="qqquad"><g shape-rendering="crispEdges" stroke-linejoin="round" fill="none" stroke-width="1" stroke="hsla(220, 62%, 45%, 0.25)"><polygon points="800,0 800,200 600,200"></polygon><polygon points="600,200 600,0 400,0"></polygon><polygon points="600,300 600,200 500,300"></polygon><polygon points="400,300 500,200 500,300"></polygon><polygon points="400,300 500,400 500,300"></polygon><polygon points="600,400 600,300 500,300"></polygon><polygon points="800,400 800,200 600,200"></polygon><polygon points="400,0 300,0 300,100"></polygon><polygon points="200,0 300,0 200,100"></polygon><polygon points="200,100 200,200 300,100"></polygon><polygon points="400,100 300,200 400,200"></polygon><polygon points="200,200 0,200 0,0"></polygon><polygon points="0,400 200,200 0,200"></polygon><polygon points="400,300 300,200 400,200"></polygon><polygon points="200,200 300,200 200,300"></polygon><polygon points="200,300 200,400 300,300"></polygon><polygon points="300,400 400,400 400,300"></polygon><polygon points="200,400 400,600 200,600"></polygon><polygon points="0,600 200,400 200,600"></polygon><polygon points="0,800 200,600 0,600"></polygon><polygon points="400,800 400,600 200,800"></polygon><polygon points="800,600 800,400 600,400"></polygon><polygon points="600,500 500,500 600,400"></polygon><polygon points="500,400 400,400 500,500"></polygon><polygon points="400,600 500,500 500,600"></polygon><polygon points="500,600 500,500 600,600"></polygon><polygon points="400,600 600,800 600,600"></polygon><polygon points="600,800 800,600 800,800"></polygon></g><g fill="hsla(211, 100%, 46%, 0.4)" stroke-width="3" stroke="hsla(220, 43%, 13%, 0.5)"></g></svg>