<svg xmlns="http://www.w3.org/2000/svg" version="1.1" xmlns:xlink="http://www.w3.org/1999/xlink" xmlns:svgjs="http://svgjs.dev/svgjs" viewBox="0 0 800 800" id="qqquad"><g shape-rendering="crispEdges" stroke-linejoin="round" fill="none" stroke-width="1.5" stroke="hsla(220, 62%, 45%, 0.2)"><polygon points="800,200 800,0 600,200"></polygon><polygon points="500,0 600,0 500,100"></polygon><polygon points="400,0 400,100 500,0"></polygon><polygon points="400,200 500,200 400,100"></polygon><polygon points="600,200 500,200 500,100"></polygon><polygon points="500,300 500,200 600,300"></polygon><polygon points="500,300 400,300 500,200"></polygon><polygon points="400,300 400,400 500,400"></polygon><polygon points="600,300 600,400 500,300"></polygon><polygon points="800,200 800,400 600,200"></polygon><polygon points="300,100 300,0 400,100"></polygon><polygon points="200,100 300,0 200,0"></polygon><polygon points="300,200 300,100 200,100"></polygon><polygon points="400,100 300,100 300,200"></polygon><polygon points="200,200 0,0 0,200"></polygon><polygon points="200,400 0,200 200,200"></polygon><polygon points="400,200 400,300 300,200"></polygon><polygon points="200,300 300,300 200,200"></polygon><polygon points="300,300 200,300 200,400"></polygon><polygon points="400,300 300,300 300,400"></polygon><polygon points="300,400 400,400 400,500"></polygon><polygon points="300,400 200,400 200,500"></polygon><polygon points="300,500 200,600 300,600"></polygon><polygon points="300,500 400,600 400,500"></polygon><polygon points="200,600 0,400 0,600"></polygon><polygon points="200,800 0,600 0,800"></polygon><polygon points="200,800 400,800 400,600"></polygon><polygon points="800,600 800,400 600,400"></polygon><polygon points="600,400 500,400 500,500"></polygon><polygon points="400,500 500,400 500,500"></polygon><polygon points="500,500 500,600 400,600"></polygon><polygon points="600,500 500,600 500,500"></polygon><polygon points="500,700 500,600 600,600"></polygon><polygon points="500,600 400,700 400,600"></polygon><polygon points="500,700 500,800 400,700"></polygon><polygon points="500,800 500,700 600,800"></polygon><polygon points="800,600 600,600 600,800"></polygon></g><g fill="hsl(220, 62%, 45%)" stroke-width="3" stroke="hsl(220, 43%, 13%)"></g></svg>