<svg xmlns="http://www.w3.org/2000/svg" version="1.1" xmlns:xlink="http://www.w3.org/1999/xlink" xmlns:svgjs="http://svgjs.dev/svgjs" viewBox="0 0 1422 800"><defs><linearGradient x1="50%" y1="0%" x2="50%" y2="100%" id="ccchaos-grad"><stop stop-color="hsl(206, 75%, 49%)" stop-opacity="1" offset="0%"></stop><stop stop-color="hsl(331, 90%, 56%)" stop-opacity="1" offset="100%"></stop></linearGradient></defs><g stroke-width="2" stroke="url(#ccchaos-grad)" fill="none" stroke-linecap="round"><path d="M710.81 16.12Q721.28 20.65 731.76 24.72 742.26 28.46 752.76 32.05 763.29 35.67 773.84 39.49 784.41 43.67 795 48.34 805.62 53.61 816.26 59.51 826.93 66.06 837.62 73.22 848.33 80.91 859.06 89.01 869.81 97.37 880.57 105.84 891.35 114.26 902.12 122.46 912.91 130.3 923.69 137.68 934.46 144.5 945.23 150.74 955.99 156.39 966.73 161.49 977.45 166.14 988.15 170.43 998.83 174.51 1009.49 178.52 1020.12 182.61 1030.73 186.92 1041.31 191.58 1051.87 196.68 1051.67 209.08 1051.41 221.47 1051.11 233.86 1050.8 246.26 1050.5 258.65 1050.26 271.05 1050.09 283.44 1050 295.83 1050.01 308.23 1050.12 320.62 1050.32 333.02 1050.58 345.41 1050.88 357.8 1051.2 370.2 1051.49 382.59 1051.73 394.98 1051.91 407.38 1051.99 419.77 1051.97 432.17 1051.86 444.56 1051.67 456.95 1051.41 469.35 1051.1 481.74 1050.79 494.14 1050.5 506.53 1050.25 518.93 1050.08 531.32 1050 543.71 1050.02 556.11 1050.13 568.5 1050.33 580.9 1050.59 593.29 1040.11 599.94 1029.64 606.74 1019.17 613.64 1008.7 620.58 998.23 627.5 987.75 634.35 977.25 641.07 966.74 647.64 956.21 654.03 945.66 660.23 935.09 666.24 924.49 672.09 913.87 677.8 903.22 683.41 892.55 688.97 881.86 694.51 871.14 700.08 860.41 705.73 849.66 711.47 838.9 717.34 828.12 723.33 817.34 729.47 806.56 735.73 795.78 742.09 785.01 748.54 774.24 755.04 763.49 761.55 752.75 768.06 742.03 774.54 731.33 780.95 720.65 787.28 710 793.54 699.4 787.57 688.83 781.54 678.28 775.41 667.75 769.19 657.24 762.88 646.74 756.46 636.26 749.97 625.78 743.42 615.31 736.83 604.84 730.26 594.37 723.72 583.9 717.25 573.41 710.89 562.91 704.66 552.39 698.58 541.86 692.64 531.3 686.86 520.72 681.2 510.12 675.65 499.49 670.15 488.84 664.68 478.16 659.17 467.46 653.59 456.74 647.88 446 642.01 435.25 635.95 424.48 629.68 413.7 623.21 402.92 616.55 392.14 609.73 381.36 602.79 370.59 595.79 370.33 583.5 370.13 571.22 370.02 558.93 370 546.64 370.08 534.35 370.25 522.06 370.5 509.77 370.79 497.48 371.1 485.19 371.41 472.9 371.67 460.61 371.86 448.32 371.97 436.03 371.99 423.74 371.91 411.46 371.73 399.17 371.49 386.88 371.2 374.59 370.88 362.3 370.58 350.01 370.32 337.72 370.12 325.43 370.01 313.14 370 300.86 370.09 288.57 370.26 276.28 370.5 263.99 370.8 251.7 371.11 239.41 371.41 227.12 371.67 214.83 371.87 202.54 382.56 198.46 393.23 194.35 403.87 190.06 414.49 185.47 425.08 180.46 435.65 174.95 446.2 168.87 456.73 162.21 467.24 155.01 477.73 147.33 488.21 139.27 498.69 130.97 509.16 122.56 519.62 114.22 530.1 106.09 540.57 98.33 551.06 91.06 561.56 84.35 572.08 78.28 582.62 72.83 593.18 67.96 603.76 63.61 614.37 59.65 625 55.93 635.66 52.28 646.34 48.53 657.04 44.51 667.76 40.07 678.51 35.07 689.26 29.44 705.42 19.62 710.81 16.12" stroke-dasharray="20 18" transform="rotate(0, 711, 400)" opacity="0.05"></path><path d="M710 64.7Q719.29 68.77 728.6 72.49 737.93 75.95 747.27 79.25 756.63 82.51 766.01 85.84 775.41 89.35 784.81 93.13 794.23 97.27 803.65 101.83 813.08 106.84 822.52 112.32 831.95 118.26 841.38 124.62 850.81 131.34 860.23 138.34 869.64 145.53 879.04 152.81 888.43 160.08 897.8 167.23 907.16 174.18 916.5 180.83 925.82 187.13 935.12 193.03 944.4 198.51 953.66 203.56 962.91 208.22 972.14 212.52 981.35 216.53 990.55 220.33 1004.19 231.19 1008.38 249.12 1008.11 259.87 1007.87 270.61 1007.68 281.36 1007.56 292.1 1007.5 302.85 1007.51 313.59 1007.61 324.34 1007.76 335.08 1007.98 345.83 1008.23 356.57 1008.5 367.32 1008.77 378.06 1009.02 388.81 1009.23 399.55 1009.39 410.3 1009.48 421.04 1009.49 431.79 1009.43 442.53 1009.3 453.28 1009.11 464.02 1008.87 474.77 1008.6 485.51 1008.33 496.26 1008.07 507 1007.84 517.75 1007.66 528.49 1007.54 539.24 1007.5 549.98 1007.53 560.73 1007.63 571.47 998.41 577.66 989.2 583.78 980.01 589.82 970.83 595.72 961.66 601.48 952.49 607.06 943.33 612.47 934.17 617.71 925.01 622.8 915.85 627.75 906.68 632.59 897.5 637.36 888.31 642.08 879.11 646.81 869.89 651.57 860.66 656.39 851.41 661.31 842.14 666.33 832.85 671.49 823.55 676.77 814.22 682.18 804.88 687.72 795.52 693.35 786.14 699.08 776.75 704.86 767.35 710.68 757.94 716.51 748.51 722.32 739.08 728.08 729.65 733.79 720.21 739.41 710.78 744.95 701.62 739.78 692.46 734.54 683.3 729.19 674.14 723.75 664.97 718.2 655.79 712.55 646.6 706.82 637.39 701.01 628.18 695.15 618.94 689.27 609.69 683.39 600.42 677.55 591.14 671.76 581.83 666.07 572.5 660.49 563.16 655.04 553.8 649.74 544.42 644.57 535.03 639.55 525.63 634.65 516.21 629.86 506.79 625.15 497.36 620.48 487.92 615.81 478.49 611.11 469.06 606.33 459.63 601.45 450.21 596.43 440.79 591.24 431.39 585.87 422 580.32 412.63 574.58 412.53 563.94 412.5 553.3 412.54 542.66 412.66 532.02 412.84 521.38 413.07 510.74 413.33 500.1 413.6 489.46 413.87 478.82 414.11 468.18 414.3 457.54 414.43 446.9 414.49 436.26 414.48 425.62 414.39 414.98 414.23 404.34 414.02 393.7 413.77 383.06 413.5 372.42 413.23 361.78 412.98 351.14 412.76 340.51 412.61 329.87 412.51 319.23 412.5 308.59 412.56 297.95 412.68 287.31 412.87 276.67 413.11 266.03 413.38 255.39 413.65 244.75 413.91 234.11 423.33 229.68 432.74 224.9 442.13 219.73 451.51 214.15 460.88 208.16 470.23 201.79 479.56 195.1 488.87 188.14 498.16 181.01 507.44 173.78 516.69 166.58 525.93 159.48 535.15 152.6 544.36 146 553.55 139.78 562.73 133.97 571.9 128.62 581.07 123.71 590.23 119.24 599.39 115.16 608.55 111.42 617.71 107.91 626.88 104.55 636.06 101.24 645.25 97.85 654.45 94.28 663.67 90.43 672.9 86.21 682.15 81.57 691.41 76.44 705.35 67.76 710 64.7" stroke-dasharray="41 2" transform="rotate(0, 711, 400)" opacity="0.19"></path><path d="M710.57 113.29Q726.74 120.1 742.91 126.31 759.07 132.15 775.23 138.18 783.3 141.46 791.36 144.96 799.41 148.74 807.45 152.83 815.48 157.23 823.5 161.95 831.5 166.99 839.49 172.32 847.46 177.9 855.43 183.71 863.37 189.69 871.31 195.77 879.23 201.91 887.14 208.03 895.04 214.09 902.92 220.01 910.8 225.76 918.67 231.29 926.53 236.57 934.39 241.57 942.24 246.27 950.1 250.69 961.76 261.33 965.37 276.95 965.21 286.07 965.09 295.18 965.01 304.3 965 313.41 965.03 322.53 965.12 331.64 965.26 340.76 965.44 349.88 965.65 358.99 965.88 368.11 966.12 377.22 966.35 386.34 966.56 395.45 966.73 404.57 966.87 413.68 966.96 422.8 966.99 431.91 966.97 441.03 966.9 450.15 966.77 459.26 966.61 468.38 966.41 477.49 966.18 486.61 965.95 495.72 965.71 504.84 965.5 513.95 965.31 523.07 965.16 532.18 961.04 548.31 949.07 560.09 941.12 564.71 933.19 569.18 925.27 573.51 917.36 577.72 909.46 581.83 901.58 585.86 893.7 589.83 885.83 593.77 877.97 597.72 870.11 601.68 862.26 605.7 854.41 609.79 846.56 613.96 838.7 618.24 830.85 622.63 822.99 627.14 815.12 631.77 807.25 636.51 799.37 641.35 791.48 646.28 783.57 651.28 775.66 656.34 767.73 661.43 759.79 666.53 751.84 671.62 743.87 676.69 735.89 681.71 727.89 686.67 711.91 691.76 696.02 687.51 688.07 682.96 680.12 678.32 672.15 673.58 664.17 668.74 656.17 663.82 648.16 658.82 640.14 653.75 632.1 648.63 624.06 643.49 616 638.33 607.93 633.2 599.86 628.1 591.78 623.07 583.7 618.11 575.62 613.25 567.53 608.51 559.44 603.89 551.36 599.39 543.28 595.02 535.2 590.78 527.13 586.64 519.07 582.6 511.02 578.63 502.98 574.72 494.95 570.83 486.93 566.93 478.92 563 470.93 559.02 459 548.29 455.15 532.54 455.3 523.43 455.49 514.32 455.7 505.22 455.94 496.11 456.17 487.01 456.4 477.9 456.6 468.79 456.76 459.69 456.89 450.58 456.96 441.47 456.98 432.37 456.95 423.26 456.86 414.16 456.72 405.05 456.55 395.94 456.34 386.84 456.11 377.73 455.87 368.62 455.64 359.52 455.43 350.41 455.25 341.3 455.11 332.2 455.02 323.09 454.99 313.98 455 304.88 455.08 295.77 455.2 286.66 455.36 277.56 459.72 261.28 471.96 248.61 480.05 242.9 488.13 237.02 496.21 231.02 504.29 224.95 512.36 218.86 520.42 212.82 528.47 206.89 536.51 201.12 544.54 195.56 552.55 190.24 560.56 185.21 568.55 180.49 576.52 176.07 584.49 171.97 600.36 164.72 616.2 158.15 631.98 152.17 647.73 146.18 663.45 139.53 679.16 132.17 687.01 127.96 694.86 123.41 706.64 115.91 710.57 113.29" stroke-dasharray="35 53" transform="rotate(0, 711, 400)" opacity="0.32"></path><path d="M711.73 161.88Q725.13 167.81 738.5 173.18 751.83 178.25 765.12 183.3 778.37 188.63 791.59 194.47 804.77 201.02 817.92 208.39 831.05 216.58 844.15 225.52 857.24 235.05 870.33 244.97 883.42 255.01 896.51 264.92 909.62 274.46 922.76 283.43 922.56 298.61 922.5 313.79 922.59 328.97 922.82 344.15 923.15 359.33 923.54 374.52 923.92 389.7 924.23 404.88 924.44 420.06 924.49 435.24 924.4 450.43 924.17 465.61 923.83 480.79 923.45 495.97 923.07 511.16 922.75 526.34 909.36 533.14 895.99 539.67 882.66 546.07 869.37 552.48 856.12 559.05 842.9 565.87 829.72 573.04 816.58 580.59 803.45 588.52 790.35 596.77 777.26 605.27 764.17 613.92 751.09 622.6 737.99 631.19 724.88 639.61 711.74 647.77 698.31 640.49 684.86 632.9 671.4 624.99 657.92 616.77 644.44 608.28 630.97 599.6 617.51 590.84 604.07 582.12 590.65 573.55 577.27 565.26 563.92 557.33 550.61 549.8 537.34 542.68 524.11 535.92 510.91 529.43 497.74 523.1 498.06 507.78 498.44 492.47 498.82 477.15 499.16 461.83 499.39 446.51 499.48 431.19 499.43 415.88 499.22 400.56 498.91 385.24 498.53 369.92 498.14 354.61 497.81 339.29 497.58 323.97 497.49 308.65 497.55 293.34 497.75 278.02 511.18 268.06 524.63 258.22 538.09 248.74 551.57 239.84 565.05 231.65 578.52 224.27 591.98 217.66 605.42 211.75 618.83 206.34 632.21 201.2 645.56 196.05 658.86 190.62 672.14 184.64 685.37 177.92 705.15 166.11 711.73 161.88" stroke-dasharray="14 25" transform="rotate(0, 711, 400)" opacity="0.46"></path><path d="M711.87 210.47Q722.41 215.36 732.92 219.88 743.42 224.15 753.91 228.32 764.39 232.52 774.86 236.88 785.33 241.53 795.8 246.56 806.27 252.04 816.75 258.02 827.25 264.49 837.76 271.41 848.29 278.73 858.84 286.36 869.41 294.18 880 302.07 880.01 314.33 880.12 326.59 880.32 338.86 880.58 351.12 880.88 363.38 881.2 375.65 881.49 387.91 881.73 400.17 881.91 412.44 881.99 424.7 881.97 436.96 881.86 449.23 881.67 461.49 881.41 473.76 881.1 486.02 880.79 498.28 870.01 503.28 859.25 508.37 848.49 513.64 837.75 519.15 827.03 524.91 816.33 530.96 805.65 537.29 795 543.88 784.37 550.68 773.77 557.64 763.19 564.7 752.63 571.79 742.09 578.84 731.58 585.79 721.08 592.58 710.59 599.18 699.82 593.42 689.07 587.44 678.34 581.23 667.62 574.76 656.93 568.06 646.26 561.17 635.61 554.12 624.99 546.99 614.4 539.83 603.82 532.73 593.27 525.75 582.74 518.96 572.23 512.42 561.74 506.16 551.25 500.2 540.78 494.54 541.09 482.16 541.4 469.77 541.66 457.39 541.85 445.01 541.96 432.63 541.98 420.25 541.9 407.87 541.72 395.49 541.48 383.11 541.19 370.73 540.87 358.34 540.57 345.96 540.31 333.58 540.11 321.2 540 308.82 539.99 296.44 550.65 289.43 561.33 282.86 572.03 276.74 582.75 271.11 593.49 265.93 604.25 261.14 615.01 256.65 625.79 252.35 636.57 248.12 647.36 243.82 658.13 239.32 668.91 234.5 679.67 229.26 690.42 223.53 706.51 213.87 711.87 210.47" stroke-dasharray="101 2" transform="rotate(0, 711, 400)" opacity="0.59"></path><path d="M710.8 259.06Q726.51 266.3 742.25 273.07 758.03 279.57 773.84 286.23 781.76 289.77 789.7 293.5 797.65 297.45 805.62 301.65 813.6 306.1 821.6 310.81 833.68 323.01 837.94 339.53 838.15 348.82 838.38 358.11 838.62 367.4 838.85 376.7 839.06 385.99 839.23 395.28 839.37 404.57 839.46 413.86 839.49 423.15 839.47 432.44 839.4 441.73 839.27 451.02 834.97 467.08 822.74 478.28 814.66 482.9 806.57 487.68 798.48 492.64 790.4 497.74 782.32 502.97 774.25 508.29 766.18 513.69 758.12 519.11 750.07 524.53 742.03 529.92 734.01 535.25 725.99 540.48 710.02 545.97 694.11 541.94 686.19 537.39 678.28 532.68 670.38 527.81 662.49 522.79 654.61 517.63 646.74 512.35 638.88 506.97 631.02 501.53 623.16 496.06 615.31 490.58 607.46 485.15 599.61 479.79 587.93 467.31 584.26 450.81 584.39 441.51 584.46 432.22 584.48 422.92 584.45 413.63 584.36 404.33 584.22 395.04 584.05 385.74 583.84 376.45 583.61 367.15 583.37 357.86 583.14 348.56 582.93 339.27 586.64 323.33 598.46 312.92 614.37 305.95 630.32 299.27 646.33 292.59 662.39 285.61 670.44 281.82 678.49 277.81 686.56 273.53 694.63 268.99 706.76 261.61 710.8 259.06" stroke-dasharray="18 27" transform="rotate(0, 711, 400)" opacity="0.73"></path><path d="M710 307.65Q720.62 312.71 731.26 317.45 741.93 322 752.62 326.45 763.34 330.94 774.07 335.57 784.82 340.45 795.58 345.66 795.88 358.05 796.2 370.44 796.49 382.83 796.73 395.22 796.91 407.6 796.99 419.99 796.97 432.38 796.86 444.77 786.15 451.75 775.42 458.95 764.67 466.28 753.91 473.66 743.13 481 732.35 488.21 721.57 495.23 710.79 502 700.32 496.35 689.85 490.4 679.38 484.13 668.9 477.54 658.41 470.66 647.91 463.53 637.39 456.2 626.85 448.78 626.96 436.5 626.98 424.22 626.9 411.94 626.72 399.67 626.48 387.39 626.19 375.11 625.87 362.84 625.57 350.56 636.06 346.04 646.56 341.47 657.08 336.73 667.62 331.72 678.18 326.35 688.76 320.57 704.68 311 710 307.65" stroke-dasharray="11 68" transform="rotate(0, 711, 400)" opacity="0.86"></path></g></svg>