<svg id="eYGVxvBzJu71" xmlns="http://www.w3.org/2000/svg" xmlns:xlink="http://www.w3.org/1999/xlink" viewBox="0 0 300 300" shape-rendering="geometricPrecision" text-rendering="geometricPrecision"><defs><linearGradient id="eYGVxvBzJu72-fill" x1="0.51052" y1="0.023306" x2="0.51052" y2="0.260852" spreadMethod="reflect" gradientUnits="objectBoundingBox" gradientTransform="translate(0 0)"><stop id="eYGVxvBzJu72-fill-0" offset="0%" stop-color="#ff6100"/><stop id="eYGVxvBzJu72-fill-1" offset="100%" stop-color="#f50054"/></linearGradient><linearGradient id="eYGVxvBzJu73-fill" x1="0.5" y1="0.01875" x2="0.5" y2="1.027371" spreadMethod="repeat" gradientUnits="objectBoundingBox" gradientTransform="translate(0 0)"><stop id="eYGVxvBzJu73-fill-0" offset="0%" stop-color="#ff6100"/><stop id="eYGVxvBzJu73-fill-1" offset="100%" stop-color="#f50054"/></linearGradient></defs><path xmlns="http://www.w3.org/2000/svg" d="M64,256.8L153.3,51.30376L240.87854,256.8L64,250.8Z" transform="matrix(.705748 0 0 0.580404 45 48.487673)" fill="url(#eYGVxvBzJu73-fill)" stroke="none"/><g transform="matrix(.1 0 0-.1 0 300)"><path d="M1500,2428c-18-40-94-219-170-398C1187,1691,606,423,640,405c31-16,1727-9,1743-3c35,13,36,46,2,96-14,20-222,491-251,558-30,67-112,291-115,294-5,5-413,1088-413,1092-1,3-14,17-30,29-18,14-27,18-24,9c4-8,668-1693,666-1696-.375851-.250567,22.827501,19.746166-10.957294,19.613319C2061.049938,803.039253,1562.846586,783.375851,793,785l25,57c23,53,26,57,51,51c14-3,29-10,32-15s238-6,565-2c307,4,577,6,599,5c49-2,103.11394,24.11394,103.11394,37.11394C2168.11394,925.11394,860,912,860,915s465,1058,622,1433c62,148,76,208,18,80ZM2218,752.904765c0,0,33.9904-48.622785,52-79.904765c0-10-160-13-765-13-489,0-765,4-765,10q0,5,53,82.904765h555.095235M1509,630c494,0,757,20,765,20c7,0,53-98,54-102c2-5-368-8-822-8s-826,3-826,6s45,102,60,94c12-6,301-10,769-10Zm94-120c484,0,717,3,717,10q0,25,59-85l-871-3c-479-1-873-1-874,1-2,1,35,96,46,90"/><path d="M1527,2182c-17-19-568-1174-566-1176s254-6,560-9l556-5-7,37c-9,42-39,120-79,201-16,32-172,383-178,376-3-2,22-62,55-133c60-129,192-444,192-456q0-4-1088-7q384,800,486,1008c56,115,82,159,89,150c5-7,42-85,83-173c136-294,180-382,173-345-3,19-231,524-241,534-18,15-20,15-35-2Z"/><path d="M1532,1888c8-13,333-565,268-438-11,21-26,81-34,89-7,9-224,371-233,371-14,0-14-3-1-22Z"/><path d="M1286,1481c11,9,344,182,341,185-2,3-257-113-257-95c0,13,161,302,152,311"/><path d="M1543,1392q214,118,177,118c-11,0-110-45-110-40c0,6,59,145,53,151"/></g></svg>
