<svg xmlns="http://www.w3.org/2000/svg" version="1.1" xmlns:xlink="http://www.w3.org/1999/xlink" xmlns:svgjs="http://svgjs.dev/svgjs" viewBox="0 0 800 800" id="qqquad"><g shape-rendering="crispEdges" stroke-linejoin="round" fill="none" stroke-width="1" stroke="hsla(211, 100%, 46%, .4)"><polygon points="600,200 600,0 800,200"></polygon><polygon points="600,100 600,0 500,0"></polygon><polygon points="400,0 500,100 500,0"></polygon><polygon points="400,200 500,100 400,100"></polygon><polygon points="600,100 500,200 600,200"></polygon><polygon points="500,200 600,200 500,300"></polygon><polygon points="400,200 500,300 400,300"></polygon><polygon points="500,300 400,400 500,400"></polygon><polygon points="600,300 500,300 500,400"></polygon><polygon points="600,400 600,200 800,200"></polygon><polygon points="400,0 400,200 200,0"></polygon><polygon points="200,0 0,200 0,0"></polygon><polygon points="200,200 200,400 0,200"></polygon><polygon points="400,200 400,400 200,400"></polygon><polygon points="400,400 400,600 200,600"></polygon><polygon points="200,400 200,600 0,400"></polygon><polygon points="200,600 200,800 0,600"></polygon><polygon points="200,800 200,600 400,800"></polygon><polygon points="800,400 600,600 800,600"></polygon><polygon points="600,600 600,400 400,600"></polygon><polygon points="600,800 600,600 400,800"></polygon><polygon points="800,600 600,600 800,800"></polygon></g><g fill="hsla(211, 100%, 46%, .5)" stroke-width="3" stroke="hsla(319, 100%, 50%, .5)"></g></svg>