<svg xmlns="http://www.w3.org/2000/svg" version="1.1" xmlns:xlink="http://www.w3.org/1999/xlink" xmlns:svgjs="http://svgjs.dev/svgjs" viewBox="0 0 1422 800"><defs><linearGradient x1="50%" y1="0%" x2="50%" y2="100%" id="ccchaos-grad"><stop stop-color="hsl(206, 75%, 49%)" stop-opacity="1" offset="0%"></stop><stop stop-color="hsl(331, 90%, 56%)" stop-opacity="1" offset="100%"></stop></linearGradient></defs><g stroke-width="2" stroke="url(#ccchaos-grad)" fill="none" stroke-linecap="round"><path d="M690.86 61.09C694.66 53.4 702.34 50.37 710.09 51.59 717.84 52.94 725.67 58.45 729.85 67.3Q735.14 78.33 740.46 89.33 745.78 100.31 751.06 111.25 756.24 122.14 761.31 132.97 766.26 143.74 771.08 154.44 775.8 165.06 780.44 175.6 785.06 186.06 789.69 196.42 794.38 206.7 799.16 216.88 804.07 226.98 809.1 236.99 814.25 246.92 819.5 256.77 824.81 266.54 830.14 276.24 835.44 285.88 840.67 295.46 845.81 305 850.81 314.49 855.7 323.95 860.46 333.38 865.14 342.8 869.77 352.2 874.38 361.61 879.04 371.02 883.77 380.45 888.61 389.9 893.58 399.38 898.67 408.9 903.87 418.45 909.16 428.05 914.48 437.7 919.8 447.4 925.08 457.16 930.27 466.97 935.34 476.83 940.29 486.75 945.11 496.73 949.83 506.76 954.47 516.85 959.09 526.98 963.72 537.16 968.41 547.38 973.19 557.63 978.09 567.92 983.12 578.23 988.27 588.57 993.52 598.92 998.83 609.29 1004.16 619.66 1009.46 630.03 1014.7 640.39 1019.83 650.75 1024.84 661.09 1029.73 671.42 1034.5 681.72 1039.17 692 1043.8 702.26 1048.42 712.48C1051.76 719.83 1050.71 727.61 1046.83 733.5 1042.99 739.39 1036.29 743.38 1028.22 743.1Q1018.27 742.76 1008.33 742.45 998.38 742.17 988.44 741.93 978.5 741.76 968.55 741.65 958.61 741.62 948.66 741.65 938.72 741.76 928.77 741.94 918.83 742.17 908.89 742.46 898.94 742.77 889 743.11 879.05 743.46 869.11 743.8 859.16 744.11 849.22 744.38 839.28 744.61 829.33 744.77 819.39 744.87 809.44 744.89 799.5 744.84 789.55 744.72 779.61 744.54 769.67 744.3 759.72 744.01 749.78 743.69 739.83 743.34 729.89 743 719.94 742.66 710 742.36 700.06 742.09 690.11 741.87 680.17 741.72 670.22 741.63 660.28 741.62 650.33 741.68 640.39 741.81 630.45 742 620.5 742.25 610.56 742.55 600.61 742.88 590.67 743.22 580.73 743.56 570.78 743.89 560.84 744.2 550.89 744.46 540.95 744.66 531 744.81 521.06 744.88 511.12 744.89 501.17 744.81 491.23 744.67 481.28 744.47 471.34 744.21 461.4 743.91 451.45 743.58 441.51 743.24 431.56 742.9 421.62 742.57 411.68 742.27 401.73 742.02 391.79 741.82C383.72 741.71 377.09 737.36 373.42 731.23 369.8 725.11 369.17 717.17 372.99 709.87Q378.32 699.74 383.63 689.64 388.9 679.57 394.07 669.54 399.13 659.53 404.07 649.57 408.88 639.64 413.59 629.76 418.23 619.91 422.84 610.1 427.48 600.32 432.17 590.58 436.97 580.87 441.89 571.19 446.93 561.53 452.09 551.89 457.35 542.27 462.66 532.65 467.99 523.04 473.29 513.43 478.51 503.8 483.63 494.16 488.63 484.5 493.5 474.82 498.26 465.09 502.93 455.33 507.55 445.52 512.17 435.67 516.83 425.75 521.57 415.78 526.43 405.75 531.4 395.65 536.51 385.48 541.72 375.24 547.01 364.94 552.33 354.57 557.65 344.13 562.92 333.63 568.1 323.07 573.16 312.46 578.09 301.79 582.91 291.08 587.62 280.34 592.26 269.56 596.88 258.76 601.51 247.95 606.21 237.14 611 226.33 615.91 215.54 620.95 204.77 626.11 194.04 631.37 183.35 636.68 172.71 642.01 162.13 647.31 151.62 652.53 141.19 657.66 130.84 662.66 120.58 667.53 110.41 672.29 100.34 676.96 90.38 681.58 80.51 688.53 65.92 690.86 61.09" stroke-dasharray="6 9" transform="rotate(0, 711, 400)" opacity="0.05"></path><path d="M694.64 103.13C701.2 89.73 721.35 92.9 728.77 108.34Q733.3 117.94 737.75 127.53 742.09 137.11 746.34 146.66 750.51 156.19 754.6 165.68 758.66 175.13 762.7 184.54 766.75 193.89 770.85 203.19 775.02 212.44 779.27 221.62 783.63 230.74 788.08 239.8 792.61 248.8 797.22 257.73 801.87 266.59 806.53 275.4 811.18 284.14 815.78 292.82 820.31 301.44 824.76 310.02 829.11 318.54 833.36 327.01 837.52 335.45 841.62 343.84 845.67 352.2 849.71 360.54 853.77 368.85 857.86 377.15 862.03 385.43 866.29 393.71 870.64 401.99 875.09 410.26 879.62 418.55 884.23 426.85 888.87 435.17 893.54 443.51 898.19 451.87 902.79 460.26 907.32 468.68 911.77 477.14 916.12 485.63 920.37 494.16 924.54 502.73 928.64 511.33 932.69 519.98 936.73 528.66 940.78 537.39 944.88 546.15 949.05 554.95 953.3 563.78 957.65 572.65 962.1 581.55 966.63 590.47 971.24 599.42 975.88 608.4 980.55 617.39 985.2 626.4 989.8 635.42 994.33 644.44 998.78 653.48 1003.13 662.52 1007.39 671.55C1013.36 684.54 1003.66 699.09 989.55 698.64Q972.15 698.31 954.75 698.25 937.35 698.47 919.94 698.95 902.54 699.63 885.14 700.4 867.73 701.16 850.33 701.82 832.93 702.27 815.52 702.47 798.12 702.38 780.72 702.02 763.32 701.43 745.91 700.69 728.51 699.91 711.11 699.19 693.7 698.63 676.3 698.3 658.9 698.25 641.5 698.48 624.09 698.97 606.69 699.65 589.29 700.42 571.89 701.18 554.48 701.83 537.08 702.28 519.68 702.47 502.27 702.37 484.87 702 467.47 701.41 450.07 700.67 432.66 699.89C418.55 699.3 409.83 684.02 416.38 671.53Q420.82 662.89 425.17 654.27 429.43 645.68 433.59 637.11 437.69 628.56 441.74 620.04 445.78 611.53 449.84 603.04 453.93 594.57 458.1 586.1 462.35 577.65 466.7 569.19 471.15 560.74 475.69 552.28 480.29 543.82 484.94 535.35 489.6 526.85 494.25 518.34 498.85 509.81 503.39 501.25 507.84 492.66 512.19 484.04 516.44 475.37 520.61 466.67 524.71 457.93 528.76 449.14 532.8 440.31 536.85 431.43 540.95 422.5 545.11 413.52 549.37 404.49 553.72 395.42 558.16 386.3 562.7 377.13 567.3 367.93 571.95 358.68 576.61 349.4 581.26 340.08 585.86 330.74 590.4 321.37 594.85 311.98 599.2 302.57 603.46 293.16 607.62 283.75 611.72 274.33 615.78 264.93 619.81 255.54 623.87 246.17 627.96 236.83 632.13 227.52 636.38 218.24 640.73 209.02 645.17 199.84 649.71 190.71 654.31 181.64 658.96 172.64 663.62 163.7 668.27 154.83 672.87 146.03 677.41 137.3 681.86 128.65 686.21 120.07 692.55 107.35 694.64 103.13" stroke-dasharray="0 2" transform="rotate(0, 711, 400)" opacity="0.19"></path><path d="M697.13 145.16C703.32 133.68 720.59 136.26 726.38 149.41Q733.4 165.79 740.32 182.14 747.31 198.43 754.49 214.62 761.94 230.7 769.66 246.63 777.58 262.41 785.57 278.02 793.48 293.46 801.18 308.72 808.6 323.8 815.75 338.72 822.72 353.48 829.65 368.11 836.69 382.62 843.95 397.03 851.49 411.37 859.29 425.66 867.25 439.92 875.23 454.19 883.08 468.48 890.69 482.82 898.02 497.21 905.1 511.69 912.05 526.25 918.99 540.92 926.09 555.69 933.44 570.57 941.08 585.54 948.94 600.62 956.93 615.79 964.88 631.04C970.51 642.05 962.75 654.84 950.65 654.9Q935.73 655.2 920.82 655.73 905.9 656.42 890.98 657.22 876.07 658.04 861.15 658.8 846.23 659.43 831.32 659.86 816.4 660.04 801.48 659.97 786.57 659.64 771.65 659.1 756.73 658.39 741.82 657.59 726.9 656.77 711.98 656.02 697.07 655.41 682.15 655 667.23 654.84 652.32 654.94 637.4 655.29 622.49 655.86 607.57 656.58 592.65 657.39 577.74 658.2 562.82 658.94 547.9 659.53 532.99 659.91 518.07 660.05 503.15 659.92 488.24 659.55 473.32 658.97C461.22 658.38 453.2 645.28 458.31 634.78Q465.27 620.21 472.21 605.65 479.26 591.08 486.54 576.49 494.11 561.86 501.92 547.17 509.89 532.41 517.86 517.55 525.7 502.58 533.29 487.5 540.59 472.29 547.66 456.95 554.59 441.48 561.55 425.88 568.67 410.17 576.04 394.35 583.7 378.43 591.58 362.44 599.56 346.41 607.51 330.35 615.27 314.29 622.76 298.27 629.98 282.3 636.99 266.42 643.92 250.66 650.91 235.03 658.11 219.57 665.57 204.29 673.31 189.2 681.24 174.32 693.18 152.4 697.13 145.16" stroke-dasharray="7 11" transform="rotate(0, 711, 400)" opacity="0.32"></path><path d="M698.23 187.19C703.55 177.61 717.94 179.63 722.6 190.54Q728.52 204.13 734.61 217.71 740.89 231.25 747.36 244.75 753.97 258.18 760.62 271.54 767.25 284.81 773.77 297.99 780.11 311.05 786.25 324.01 792.21 336.85 798.04 349.57 803.81 362.18 809.62 374.69 815.53 387.08 821.62 399.39 827.9 411.6 834.37 423.74 840.98 435.82 847.63 447.84 854.26 459.83 860.78 471.79 867.12 483.74 873.27 495.7 879.23 507.66 885.06 519.65 890.83 531.68 896.64 543.75 902.55 555.87 908.64 568.05 914.92 580.3 921.39 592.61C926.13 601.51 919.91 612.49 909.83 613.03Q897.4 613.79 884.97 614.59 872.54 615.4 860.11 616.14 847.68 616.78 835.25 617.25 822.82 617.54 810.39 617.62 797.96 617.48 785.53 617.14 773.1 616.62 760.67 615.95 748.24 615.19 735.81 614.38 723.38 613.58 710.95 612.84 698.52 612.23 686.09 611.77 673.66 611.51 661.23 611.46 648.8 611.62 636.37 611.98 623.94 612.52 611.51 613.21 599.08 613.98 586.65 614.79 574.21 615.59 561.78 616.31 549.35 616.91 536.92 617.34 524.49 617.58 512.06 617.61C501.98 617.47 495.04 606.83 499.24 598Q505.2 585.71 511.35 573.36 517.69 560.96 524.21 548.48 530.84 535.94 537.5 523.32 544.1 510.61 550.57 497.83 556.85 484.96 562.94 472.01 568.85 458.98 574.66 445.88 580.43 432.71 586.26 419.49 592.22 406.22 598.36 392.93 604.71 379.61 611.22 366.29 617.85 352.98 624.51 339.7 631.11 326.46 637.58 313.28 643.87 300.17 649.96 287.14 655.87 274.22 661.67 261.4 667.45 248.7 673.27 236.13 679.23 223.7 685.38 211.39 694.97 193.21 698.23 187.19" stroke-dasharray="6 9" transform="rotate(0, 711, 400)" opacity="0.46"></path><path d="M700.38 229.19C704.26 221.52 715.77 223.04 719.87 231.72Q725.07 242.54 730.35 253.35 735.68 264.16 741 274.94 746.27 285.7 751.46 296.42 756.54 307.1 761.48 317.73 766.31 328.31 771.03 338.82 775.68 349.28 780.29 359.67 784.92 369.99 789.61 380.24 794.39 390.43 799.29 400.55 804.32 410.6 809.47 420.58 814.71 430.51 820.02 440.38 825.35 450.2 830.66 459.97 835.89 469.7 841.03 479.4 846.04 489.06 850.93 498.7 855.7 508.32 860.37 517.94 865 527.55 869.62 537.16 874.27 546.78 879 556.41C882.47 563.35 877.17 572.21 869.1 572.8Q859.15 573.49 849.21 574.08 839.26 574.57 829.32 574.93 819.38 575.14 809.43 575.19 799.49 575.09 789.54 574.83 779.6 574.42 769.66 573.89 759.71 573.27 749.77 572.56 739.82 571.82 729.88 571.07 719.94 570.34 709.99 569.67 700.05 569.08 690.1 568.61 680.16 568.28 670.22 568.09 660.27 568.06 650.33 568.19 640.38 568.48 630.44 568.9 620.5 569.45 610.55 570.09 600.61 570.8 590.66 571.55 580.72 572.3 570.77 573.02 560.83 573.68 550.89 574.24C542.82 574.62 537.6 566.43 541.29 559.14Q546.5 548.96 551.8 538.73 557.12 528.46 562.44 518.13 567.7 507.76 572.88 497.35 577.94 486.89 582.87 476.4 587.68 465.88 592.38 455.32 597.02 444.74 601.64 434.15 606.28 423.55 610.97 412.94 615.77 402.34 620.69 391.75 625.73 381.18 630.89 370.64 636.15 360.13 641.47 349.67 646.79 339.25 652.09 328.88 657.32 318.58 662.44 308.34 667.43 298.17 672.3 288.08 677.06 278.06 681.73 268.13 686.35 258.27 690.97 248.5 698 233.99 700.38 229.19" stroke-dasharray="9 6" transform="rotate(0, 711, 400)" opacity="0.59"></path><path d="M704.09 271.17C706.88 265.42 715.51 266.49 718.72 272.96Q726.58 289.11 734.22 305.24 741.57 321.35 748.67 337.39 755.62 353.34 762.56 369.19 769.64 384.92 776.97 400.52 784.58 415.98 792.43 431.29 800.41 446.46 808.37 461.5 816.17 476.41 823.71 491.21 830.98 505.91 838.01 520.53C840.51 525.77 836.34 532.24 830.29 532.47Q815.38 532.76 800.46 532.64 785.54 532.14 770.63 531.29 755.71 530.19 740.79 528.94 725.88 527.66 710.96 526.49 696.04 525.55 681.13 524.92 666.21 524.67 651.29 524.82 636.37 525.36 621.46 526.24 606.54 527.37 591.62 528.63C585.57 529.15 581.86 523.15 584.72 517.5Q592.6 501.76 600.26 485.97 607.63 470.15 614.75 454.32 621.7 438.5 628.64 422.72 635.71 406.99 643.01 391.35 650.6 375.81 658.44 360.39 666.41 345.12 674.38 330 682.19 315.04 689.76 300.25 700.56 278.4 704.09 271.17" stroke-dasharray="8 7" transform="rotate(0, 711, 400)" opacity="0.73"></path><path d="M707.06 313.13C709.1 309.29 714.85 309.95 716.81 314.24Q721.61 324.95 726.31 335.66 730.94 346.37 735.56 357.07 740.2 367.74 744.91 378.39 749.71 389 754.64 399.57 759.7 410.1 764.88 420.58 770.14 431.01 775.46 441.38 780.78 451.69 786.07 461.95 791.29 472.15 796.39 482.29C798.2 485.93 795.57 490.03 791.54 489.87Q781.6 489.36 771.65 488.69 761.71 487.89 751.77 487 741.82 486.05 731.88 485.1 721.93 484.17 711.99 483.32 702.05 482.58 692.1 481.98 682.16 481.55 672.21 481.32 662.27 481.28 652.32 481.45 642.38 481.81 632.43 482.34C628.4 482.61 625.77 478.53 627.54 474.75Q632.38 464.29 637.11 453.84 641.76 443.43 646.38 433.06 651 422.73 655.68 412.45 660.45 402.22 665.34 392.05 670.35 381.95 675.49 371.91 680.73 361.94 686.03 352.04 691.36 342.21 696.67 332.45 704.49 317.94 707.06 313.13" stroke-dasharray="7 8" transform="rotate(0, 711, 400)" opacity="0.86"></path></g></svg>