<svg xmlns="http://www.w3.org/2000/svg" version="1.1" xmlns:xlink="http://www.w3.org/1999/xlink" xmlns:svgjs="http://svgjs.dev/svgjs" viewBox="0 0 800 800"><defs><linearGradient x1="50%" y1="0%" x2="50%" y2="100%" id="ccchaos-grad"><stop stop-color="hsl(206, 75%, 49%)" stop-opacity="1" offset="0%"></stop><stop stop-color="hsl(331, 90%, 56%)" stop-opacity="1" offset="100%"></stop></linearGradient></defs><g stroke-width="2" stroke="url(#ccchaos-grad)" fill="none" stroke-linecap="round"><path d="M402.59 128.03C412.52 128.22 422.67 127.94 433.02 127.25 443.39 125.76 453.97 124.16 464.74 122.65 475.54 120.92 486.52 119.72 497.61 119.22 508.69 119.13 519.82 120.07 530.89 122.1 541.82 124.89 552.55 128.85 562.92 133.93 572.92 139.72 582.32 146.49 590.94 154.07 598.89 162.08 605.81 170.66 611.51 179.62 616.35 188.67 619.85 197.87 621.96 207.13 623.3 216.18 623.43 225.14 622.49 233.99 621.36 242.48 619.72 250.83 617.94 259.05 616.96 266.92 616.61 274.71 617.29 282.48 619.77 289.97 623.84 297.52 629.66 305.19 637.53 312.66 647 320.33 657.76 328.25 669.59 336.05 681.67 344.16 693.3 352.61 704.05 361 712.95 369.76 719.29 378.92 723.03 388.05 723.44 397.6 720.38 407.59 714.6 417.57 706.15 427.77 695.78 438.15 684.59 448.54 673.03 459.12 661.89 469.83 652.08 480.55 643.8 491.37 637.39 502.24 633.33 513.05 631.23 523.83 630.86 534.46 632.4 544.91 634.93 555.08 637.96 564.81 641.62 574.17 644.84 582.9 647.2 590.84 649.13 601.36 643.41 615.98 635.51 619.77 628.57 621.29 620.29 621.76 610.91 621.34 600.78 620.81 589.93 619.83 578.6 618.7 566.96 618.29 555.13 618.36 543.29 619.23 531.44 621.62 519.73 625.28 508.24 630.38 496.88 637.26 485.76 645.51 474.92 654.93 464.22 665.44 453.75 676.37 443.51 687.16 433.36 697.54 423.38 706.64 413.58 713.85 403.81 719.09 394.16 721.6 384.65 721.11 375.14 718.14 365.97 712.45 357.14 704.53 348.3 695.28 339.8 684.92 331.65 674.11 323.49 663.72 315.68 653.96 308.24 645.26 300.78 638.21 293.66 632.68 286.88 628.68 280.04 626.54 273.49 625.66 267.21 625.77 260.78 627.05 254.54 628.66 248.45 630.22 242.08 632 235.78 633.12 229.5 633.31 222.84 632.98 216.13 631.39 209.36 628.5 202.2 624.77 194.99 619.71 187.75 613.45 180.25 606.4 172.84 598.32 165.62 589.41 158.38 579.94 151.51 569.87 145.14 559.38 139.06 548.61 133.65 537.6 129.05 526.49 124.92 515.29 121.67 504.11 119.34 493.02 117.47 481.94 116.43 471 116.18 460.25 116.13 449.53 116.65 439 117.62 428.7 118.4 418.41 119.38 408.33 120.46 398.48 121.04 388.63 121.59 379.23 122.1 370.26 122.1 361.27 122.18 352.71 122.4 344.55 122.39 336.36 122.76 328.55 123.62 321.12 124.61 313.6 126.31 306.4 128.77 299.5 131.65 292.43 135.39 285.58 139.98 278.9 145.06 271.95 150.94 265.06 157.52 258.18 164.45 250.92 171.93 243.57 179.85 236.09 187.88 228.17 196.17 220.07 204.63 211.81 212.96 203.17 221.34 194.42 229.73 185.65 237.84 176.73 245.92 167.98 253.96 159.55 261.7 151.34 269.43 143.72 277.2 136.89 284.69 130.66 292.29 125.44 300.01 121.37 307.55 118.11 315.29 116.04 323.26 115.18 331.12 114.96 339.27 115.72 347.74 117.32 356.14 119.05 364.9 121.18 374.03 123.51 383.13 125.28 392.65 126.84 402.58 128.03" stroke-dasharray="3 3" transform="rotate(0, 400, 400)" opacity="0.94"></path><path d="M409.37 139.43C419.08 139.64 428.96 139.41 438.99 138.78 449.04 137.38 459.25 135.85 469.58 134.38 479.9 132.65 490.32 131.37 500.74 130.7 511.1 130.36 521.39 130.94 531.5 132.54 541.41 134.8 550.98 138.17 560.07 142.62 568.75 147.77 576.75 153.89 583.89 160.84 590.41 168.29 595.91 176.36 600.25 184.91 603.88 193.63 606.33 202.62 607.6 211.74 608.35 220.77 608.16 229.8 607.22 238.77 606.35 247.48 605.26 256.09 604.28 264.58 604.25 272.77 604.99 280.88 606.82 288.95 610.36 296.74 615.38 304.56 621.97 312.43 630.32 320.11 640 327.93 650.67 335.93 662.12 343.81 673.61 351.92 684.49 360.31 694.43 368.64 702.55 377.28 708.25 386.26 711.56 395.21 711.79 404.54 708.84 414.23 703.41 423.93 695.52 433.78 685.8 443.76 675.26 453.74 664.25 463.84 653.47 474.01 643.78 484.15 635.36 494.32 628.52 504.44 623.77 514.46 620.79 524.34 619.45 533.97 619.94 543.38 621.5 552.41 623.72 560.92 626.75 569.04 629.63 576.47 631.96 583.09 633.11 597.41 617.28 606.93 606.1 606.63 597.5 606.33 588.04 605.82 577.96 605.36 567.46 605.74 556.6 606.7 545.55 608.53 534.39 611.81 523.21 616.3 512.13 622.07 501.08 629.41 490.21 637.91 479.54 647.33 468.96 657.62 458.59 668.13 448.46 678.35 438.39 688.09 428.52 696.54 418.86 703.16 409.23 707.96 399.77 710.22 390.49 709.71 381.21 706.92 372.31 701.63 363.79 694.24 355.25 685.58 347.06 675.8 339.24 665.49 331.39 655.44 323.88 645.82 316.72 637.05 309.49 629.69 302.58 623.64 295.97 618.95 289.24 615.96 282.76 614.19 276.49 613.42 270.02 613.86 263.68 614.77 257.44 615.83 250.91 617.3 244.4 618.35 237.87 618.75 230.99 618.85 224.06 617.94 217.07 615.93 209.75 613.26 202.41 609.4 195.09 604.42 187.59 598.73 180.23 592.03 173.12 584.45 166.07 576.33 159.44 567.52 153.35 558.18 147.58 548.51 142.52 538.5 138.26 528.26 134.49 517.88 131.58 507.41 129.55 496.94 127.97 486.42 127.18 475.97 127.13 465.65 127.26 455.34 127.91 445.17 128.97 435.19 129.84 425.22 130.88 415.43 132 405.86 132.61 396.28 133.18 387.13 133.68 378.38 133.67 369.62 133.7 361.24 133.85 353.24 133.74 345.18 133.96 337.47 134.62 330.07 135.37 322.57 136.77 315.33 138.88 308.31 141.37 301.11 144.69 294.06 148.82 287.11 153.43 279.89 158.83 272.68 164.96 265.43 171.46 257.84 178.57 250.14 186.16 242.31 193.92 234.11 202.02 225.77 210.34 217.32 218.63 208.6 227.02 199.86 235.46 191.18 243.71 182.47 251.96 174.02 260.18 165.98 268.15 158.25 276.11 151.17 284.08 144.91 291.8 139.28 299.58 134.65 307.45 131.14 315.13 128.38 322.97 126.75 330.98 126.24 338.88 126.29 347.01 127.23 355.42 128.92 363.75 130.67 372.4 132.78 381.38 135.05 390.33 136.77 399.66 138.27 409.36 139.43" stroke-dasharray="8 2" transform="rotate(4.04, 400, 400)" opacity="0.80"></path><path d="M415.23 150.84C424.68 151.07 434.24 150.88 443.88 150.31 453.53 149 463.26 147.56 473.02 146.13 482.76 144.42 492.48 143.09 502.1 142.29 511.63 141.73 520.97 142.01 530.01 143.19 538.83 144.97 547.2 147.78 554.99 151.6 562.39 156.1 569.05 161.54 574.85 167.84 580.1 174.66 584.39 182.15 587.63 190.18 590.32 198.47 592.02 207.1 592.76 215.97 593.23 224.83 593.02 233.79 592.33 242.75 591.93 251.55 591.55 260.29 591.48 268.96 592.45 277.39 594.26 285.75 597.16 294.05 601.65 302.12 607.49 310.18 614.68 318.25 623.37 326.15 633.11 334.13 643.57 342.23 654.58 350.21 665.43 358.36 675.55 366.72 684.7 375.02 692.07 383.56 697.17 392.37 700.07 401.16 700.14 410.24 697.3 419.62 692.22 429.01 684.85 438.47 675.77 447.99 665.86 457.51 655.42 467.06 645.06 476.59 635.55 486.08 627.06 495.51 619.91 504.78 614.58 513.94 610.83 522.86 608.59 531.44 608.08 539.79 608.67 547.68 610.02 554.99 613.5 565.05 619.47 580.62 620.29 585.81 618.92 589.45 608.39 592.33 599.43 592.25 592.34 592.35 584.33 592.43 575.58 592.73 566.36 593.93 556.64 595.79 546.59 598.52 536.33 602.61 525.91 607.81 515.47 614.14 504.98 621.82 494.55 630.45 484.26 639.79 474 649.78 463.9 659.83 453.99 669.47 444.14 678.56 434.47 686.37 425 692.44 415.57 696.81 406.31 698.83 397.26 698.3 388.21 695.7 379.54 690.78 371.26 683.9 362.95 675.82 355 666.62 347.4 656.83 339.76 647.16 332.44 637.76 325.43 629 318.33 621.42 311.51 614.95 304.93 609.67 298.22 605.93 291.69 603.32 285.32 601.7 278.73 601.28 272.23 601.44 265.78 601.88 259.04 602.89 252.3 603.69 245.53 604.07 238.45 604.37 231.32 603.88 224.16 602.51 216.73 600.66 209.33 597.78 202 593.88 194.57 589.4 187.34 583.95 180.41 577.63 173.61 570.8 167.28 563.25 161.52 555.09 156.13 546.6 151.44 537.66 147.56 528.4 144.16 518.96 141.59 509.32 139.87 499.58 138.56 489.77 138.01 479.94 138.15 470.15 138.44 460.35 139.21 450.63 140.36 441.04 141.3 431.46 142.39 422.01 143.54 412.72 144.18 403.43 144.76 394.52 145.26 385.96 145.25 377.39 145.26 369.15 145.35 361.23 145.16 353.26 145.26 345.57 145.74 338.13 146.27 330.58 147.39 323.22 149.17 316.03 151.28 308.65 154.17 301.36 157.83 294.12 161.96 286.63 166.86 279.11 172.48 271.53 178.51 263.65 185.16 255.67 192.34 247.58 199.75 239.2 207.55 230.74 215.64 222.23 223.77 213.55 232.08 204.93 240.48 196.47 248.77 188.08 257.09 180.03 265.42 172.48 273.56 165.28 281.7 158.79 289.83 153.15 297.76 148.12 305.72 144.09 313.74 141.12 321.59 138.85 329.54 137.63 337.63 137.43 345.6 137.72 353.76 138.8 362.13 140.56 370.44 142.33 379 144.4 387.84 146.6 396.66 148.26 405.78 149.71 415.22 150.84" stroke-dasharray="2 1" transform="rotate(8.08, 400, 400)" opacity="0.16"></path><path d="M419.61 162.24C428.75 162.49 437.92 162.34 447.11 161.85 456.28 160.63 465.45 159.28 474.55 157.92 483.62 156.25 492.56 154.89 501.3 154 509.93 153.26 518.27 153.26 526.22 154.08 533.93 155.4 541.13 157.68 547.71 160.91 553.92 164.75 559.4 169.52 564.04 175.14 568.24 181.27 571.56 188.12 573.98 195.56 576.03 203.31 577.28 211.48 577.8 219.96 578.26 228.52 578.27 237.26 578.05 246.08 578.3 254.82 578.74 263.57 579.63 272.28 581.59 280.84 584.41 289.34 588.29 297.78 593.6 306.05 600.09 314.29 607.74 322.52 616.61 330.6 626.29 338.71 636.46 346.89 646.94 354.96 657.12 363.15 666.48 371.47 674.85 379.74 681.51 388.19 686.04 396.82 688.56 405.43 688.49 414.26 685.77 423.29 681.01 432.33 674.15 441.37 665.69 450.38 656.41 459.38 646.55 468.33 636.63 477.17 627.37 485.96 618.9 494.59 611.54 502.99 605.74 511.26 601.33 519.21 598.27 526.76 596.83 534.08 596.48 540.89 596.94 547.1 603.5 568.64 597.89 577.96 590.92 578.39 585.25 579.02 578.64 579.78 571.24 580.89 563.35 582.92 554.87 585.63 545.94 589.19 536.74 594 527.26 599.79 517.63 606.56 507.89 614.46 498.1 623.11 488.36 632.28 478.59 641.91 468.92 651.45 459.38 660.5 449.86 668.94 440.49 676.14 431.3 681.67 422.13 685.64 413.12 687.44 404.3 686.9 395.47 684.47 387.02 679.91 378.93 673.53 370.82 666.01 363.04 657.39 355.58 648.13 348.07 638.88 340.84 629.75 333.89 621.08 326.84 613.38 320.01 606.59 313.38 600.83 306.59 596.43 299.95 593.06 293.41 590.63 286.66 589.37 279.96 588.73 273.28 588.5 266.34 588.92 259.39 589.32 252.4 589.49 245.16 589.77 237.89 589.47 230.62 588.49 223.17 587.21 215.78 585.07 208.53 582.05 201.25 578.57 194.23 574.21 187.56 569.01 181.08 563.38 175.1 557 169.72 550 164.73 542.66 160.45 534.82 156.96 526.58 153.94 518.14 151.72 509.41 150.31 500.49 149.27 491.48 148.94 482.35 149.26 473.18 149.69 463.99 150.56 454.8 151.78 445.66 152.78 436.51 153.9 427.44 155.07 418.47 155.75 409.49 156.34 400.82 156.85 392.44 156.85 384.05 156.85 375.92 156.91 368.05 156.66 360.13 156.66 352.42 156.98 344.9 157.32 337.27 158.19 329.78 159.65 322.39 161.4 314.83 163.87 307.31 167.07 299.8 170.7 292.07 175.08 284.29 180.18 276.46 185.68 268.37 191.82 260.21 198.51 251.98 205.49 243.54 212.9 235.07 220.65 226.63 228.52 218.13 236.61 209.76 244.86 201.64 253.08 193.67 261.38 186.11 269.71 179.11 277.92 172.52 286.15 166.65 294.38 161.63 302.46 157.22 310.56 153.77 318.69 151.32 326.68 149.51 334.74 148.67 342.89 148.75 350.93 149.25 359.12 150.46 367.45 152.26 375.73 154.02 384.21 156.04 392.89 158.17 401.55 159.76 410.45 161.15 419.59 162.24" stroke-dasharray="0 5" transform="rotate(12.12, 400, 400)" opacity="0.79"></path><path d="M422.05 173.65C430.85 173.91 439.59 173.81 448.25 173.38 456.91 172.27 465.45 171.01 473.85 169.73 482.19 168.12 490.31 166.76 498.16 165.8 505.88 164.92 513.23 164.69 520.13 165.19 526.81 166.1 532.93 167.89 538.43 170.55 543.62 173.77 548.1 177.87 551.82 182.79 555.21 188.23 557.85 194.38 559.75 201.16 561.44 208.29 562.52 215.9 563.09 223.87 563.76 232.01 564.22 240.39 564.63 248.92 565.61 257.46 566.93 266.07 568.78 274.69 571.69 283.23 575.44 291.74 580.16 300.22 586.15 308.58 593.15 316.9 601.08 325.2 610.01 333.38 619.51 341.57 629.28 349.78 639.19 357.91 648.67 366.09 657.27 374.34 664.88 382.55 670.87 390.87 674.86 399.3 677.03 407.71 676.84 416.25 674.23 424.92 669.8 433.58 663.43 442.17 655.56 450.64 646.9 459.09 637.62 467.41 628.17 475.54 619.22 483.61 610.85 491.45 603.37 498.97 597.22 506.38 592.26 513.41 588.5 519.98 585.58 529.28 585.65 544.6 587.28 550.4 588.03 561.1 573.64 567.23 564.87 569.9 558.29 572.72 551.05 576.23 543.29 580.52 535.23 585.93 526.8 592.19 518.1 599.27 509.25 607.28 500.26 615.86 491.19 624.78 482.08 633.99 472.97 643 463.91 651.43 454.86 659.25 445.89 665.84 437.04 670.87 428.2 674.45 419.49 676.04 410.91 675.49 402.34 673.24 394.1 669.02 386.18 663.11 378.23 656.14 370.58 648.1 363.21 639.38 355.78 630.58 348.59 621.76 341.62 613.26 334.55 605.53 327.66 598.53 320.92 592.39 314.03 587.44 307.23 583.4 300.51 580.23 293.59 578.17 286.7 576.75 279.81 575.79 272.7 575.55 265.58 575.43 258.44 575.25 251.1 575.3 243.77 574.99 236.49 574.17 229.1 573.22 221.82 571.58 214.73 569.2 207.69 566.51 200.95 563.02 194.62 558.78 188.52 554.18 182.94 548.87 177.99 542.92 173.43 536.68 169.58 529.89 166.5 522.65 163.86 515.21 161.98 507.42 160.87 499.35 160.09 491.18 159.97 482.81 160.44 474.32 161 465.79 161.96 457.18 163.24 448.53 164.28 439.89 165.43 431.23 166.61 422.59 167.31 413.95 167.92 405.54 168.45 397.34 168.47 389.13 168.47 381.12 168.5 373.29 168.22 365.42 168.14 357.69 168.34 350.09 168.52 342.39 169.16 334.77 170.33 327.21 171.74 319.5 173.81 311.8 176.56 304.08 179.7 296.19 183.56 288.24 188.1 280.25 193.04 272.07 198.63 263.85 204.78 255.6 211.24 247.24 218.18 238.91 225.5 230.68 232.99 222.47 240.76 214.48 248.74 206.8 256.76 199.34 264.9 192.36 273.13 185.96 281.3 180.01 289.51 174.79 297.74 170.4 305.87 166.6 314.03 163.71 322.2 161.76 330.26 160.37 338.37 159.87 346.54 160.21 354.62 160.88 362.79 162.18 371.06 164 379.28 165.74 387.64 167.7 396.13 169.74 404.61 171.26 413.25 172.6 422.04 173.65" stroke-dasharray="10 9" transform="rotate(16.16, 400, 400)" opacity="0.13"></path><path d="M422.34 185.05C430.74 185.32 439.01 185.27 447.11 184.91 455.2 183.9 463.11 182.76 470.77 181.56 478.38 180.03 485.7 178.7 492.68 177.69 502.75 176.51 520.28 177.74 527.48 180.54 533.7 184.9 542.58 198.31 545.34 207.1 546.93 213.55 548.09 220.51 548.94 227.89 550.03 235.49 551.06 243.39 552.2 251.5 553.99 259.69 556.19 268.01 558.97 276.4 562.73 284.77 567.29 293.16 572.72 301.54 579.23 309.85 586.58 318.14 594.66 326.4 603.5 334.58 612.71 342.76 622.02 350.92 631.31 359.02 640.07 367.13 647.92 375.26 654.8 383.37 660.14 391.51 663.64 399.69 665.48 407.86 665.18 416.09 662.69 424.36 658.57 432.62 652.67 440.73 645.38 448.64 637.33 456.54 628.63 464.22 619.68 471.65 611.08 479.03 602.88 486.1 595.38 492.81 588.99 499.41 583.59 505.6 579.23 511.32 573.93 525.93 574.71 541.48 575.64 544.5 574.5 548.97 563.57 555.97 556.52 559.79 551.14 563.35 545.1 567.56 538.49 572.48 531.58 578.37 524.22 584.98 516.51 592.24 508.64 600.25 500.51 608.67 492.23 617.26 483.88 626.01 475.43 634.46 466.96 642.28 458.47 649.47 449.98 655.48 441.55 660.02 433.12 663.24 424.75 664.64 416.46 664.08 408.17 662 400.15 658.11 392.4 652.66 384.62 646.22 377.08 638.74 369.77 630.57 362.4 622.24 355.22 613.8 348.21 605.52 341.11 597.85 334.14 590.74 327.28 584.33 320.28 578.93 313.34 574.33 306.45 570.5 299.39 567.7 292.34 565.52 285.3 563.84 278.09 562.89 270.87 562.17 263.67 561.51 256.33 561.2 249.04 560.68 241.84 559.83 234.6 558.98 227.53 557.61 220.69 555.65 213.97 553.5 207.6 550.68 201.66 547.19 196 543.44 190.88 539.02 186.38 534 182.28 528.73 178.87 522.9 176.2 516.6 173.94 510.12 172.4 503.23 171.56 496.01 171.03 488.68 171.1 481.09 171.71 473.29 172.38 465.45 173.41 457.45 174.72 449.33 175.79 441.21 176.96 433 178.15 424.73 178.87 416.46 179.5 408.33 180.04 400.34 180.09 392.33 180.1 384.45 180.13 376.69 179.84 368.89 179.71 361.17 179.81 353.52 179.85 345.79 180.3 338.1 181.22 330.43 182.32 322.64 184.01 314.84 186.34 307.01 188.99 299.05 192.33 291.05 196.32 283.03 200.69 274.89 205.69 266.75 211.25 258.63 217.14 250.48 223.53 242.42 230.33 234.53 237.35 226.73 244.69 219.22 252.29 212.07 259.98 205.21 267.85 198.85 275.84 193.11 283.83 187.82 291.91 183.25 300.02 179.5 308.09 176.28 316.19 173.92 324.3 172.43 332.35 171.44 340.42 171.24 348.52 171.79 356.57 172.61 364.67 173.97 372.81 175.79 380.92 177.49 389.11 179.38 397.36 181.32 405.6 182.77 413.93 184.04 422.33 185.05" stroke-dasharray="2 11" transform="rotate(20.200000000000003, 400, 400)" opacity="0.38"></path><path d="M420.44 196.46C428.41 196.74 436.17 196.73 443.7 196.44 451.22 195.54 458.48 194.5 465.44 193.41 472.35 191.96 478.92 190.68 485.1 189.67 493.99 188.35 509.19 188.77 515.34 190.9 520.7 194.41 528.53 205.79 531.21 213.49 532.93 219.22 534.37 225.48 535.66 232.18 537.3 239.15 539.01 246.46 540.93 254.04 543.52 261.75 546.56 269.65 550.17 277.66 554.69 285.71 559.92 293.83 565.89 301.97 572.77 310.09 580.31 318.22 588.39 326.32 597.02 334.39 605.86 342.43 614.63 350.44 623.27 358.43 631.31 366.39 638.43 374.33 644.61 382.25 649.34 390.16 652.37 398.05 653.91 405.94 653.52 413.81 651.16 421.66 647.33 429.5 641.88 437.11 635.15 444.48 627.7 451.82 619.58 458.9 611.15 465.67 602.93 472.39 594.98 478.76 587.54 484.75 581 490.65 575.28 496.12 570.45 501.12 562.95 513.91 560.59 527.77 560.98 530.73 560.19 536.07 552 545.68 546.38 550.58 542.06 554.79 537.09 559.6 531.54 565.02 525.72 571.26 519.4 578.09 512.68 585.42 505.79 593.33 498.58 601.49 491.13 609.69 483.59 617.94 475.87 625.81 468.05 633.02 460.19 639.6 452.26 645.05 444.3 649.14 436.33 652.02 428.36 653.24 420.39 652.68 412.43 650.75 404.66 647.17 397.08 642.17 389.49 636.24 382.08 629.32 374.83 621.7 367.53 613.87 360.37 605.83 353.33 597.84 346.22 590.31 339.18 583.18 332.22 576.6 325.15 570.87 318.12 565.81 311.12 561.43 303.98 557.96 296.86 555.09 289.75 552.71 282.52 551.06 275.31 549.69 268.15 548.48 260.91 547.7 253.76 546.83 246.75 545.77 239.77 544.83 233 543.52 226.52 541.77 220.2 539.93 214.25 537.55 208.77 534.61 201.27 529.64 189.83 516.56 186.07 508.59 184.19 502.97 182.96 496.91 182.4 490.49 182.09 483.96 182.33 477.12 183.06 470.01 183.82 462.85 184.9 455.47 186.23 447.9 187.32 440.32 188.49 432.58 189.68 424.7 190.42 416.83 191.07 409.01 191.63 401.25 191.71 393.49 191.76 385.78 191.8 378.13 191.51 370.44 191.35 362.79 191.38 355.16 191.32 347.48 191.61 339.79 192.3 332.1 193.13 324.33 194.49 316.53 196.41 308.71 198.61 300.82 201.45 292.9 204.89 284.98 208.68 277.02 213.08 269.09 218.03 261.25 223.31 253.44 229.09 245.78 235.31 238.35 241.77 231.07 248.58 224.12 255.69 217.59 262.94 211.37 270.41 205.69 278.04 200.62 285.73 196 293.53 192.08 301.4 188.93 309.27 186.28 317.19 184.42 325.13 183.35 333.05 182.7 340.98 182.77 348.92 183.5 356.84 184.42 364.77 185.83 372.71 187.62 380.64 189.27 388.59 191.07 396.54 192.91 404.5 194.28 412.47 195.49 420.43 196.46" stroke-dasharray="5 3" transform="rotate(24.24, 400, 400)" opacity="0.55"></path><path d="M416.54 207.87C424.04 208.16 431.28 208.18 438.25 207.97 445.2 207.17 451.84 206.25 458.16 205.26 467.37 203.32 483.72 200.32 490.73 199.79 502.25 202.22 514.85 213.81 517.76 220.43 519.77 225.42 521.65 230.94 523.51 236.93 525.76 243.19 528.18 249.83 530.88 256.78 534.22 263.91 538.02 271.26 542.36 278.77 547.5 286.37 553.25 294.08 559.6 301.85 566.68 309.64 574.26 317.46 582.21 325.28 590.54 333.1 598.92 340.9 607.1 348.66 615.07 356.41 622.39 364.13 628.79 371.79 634.3 379.45 638.46 387.07 641.06 394.62 642.33 402.17 641.87 409.65 639.62 417.05 636.08 424.45 631.07 431.58 624.87 438.41 618 445.23 610.46 451.74 602.56 457.91 594.77 464.04 587.11 469.81 579.82 475.18 573.24 480.49 567.31 485.38 562.12 489.83 552.68 501.35 547.16 514.39 546.84 517.56 545.79 524.08 539.26 536.38 534.77 542.24 531.31 547.01 527.24 552.28 522.61 558.07 517.75 564.55 512.4 571.47 506.61 578.76 500.65 586.46 494.33 594.3 487.7 602.06 480.99 609.78 474.03 617.06 466.88 623.66 459.69 629.64 452.36 634.57 444.91 638.22 437.47 640.78 429.93 641.83 422.33 641.27 414.73 639.49 407.25 636.22 399.89 631.64 392.52 626.21 385.26 619.83 378.11 612.76 370.93 605.44 363.82 597.84 356.8 590.19 349.71 582.87 342.67 575.81 335.68 569.17 328.61 563.22 321.56 557.81 314.53 552.98 307.41 548.95 300.31 545.46 293.24 542.44 286.1 540.1 279.01 538.09 272 536.29 264.98 534.96 258.09 533.64 251.38 532.25 244.75 531.07 238.37 529.64 232.32 527.9 223.74 525.1 209.3 517.13 203.72 511.83 199.3 505.86 194.16 491.36 193.38 482.98 193.27 477.18 193.66 471.03 194.49 464.57 195.32 458.07 196.43 451.28 197.77 444.26 198.87 437.22 200.04 429.97 201.22 422.51 201.97 415.05 202.64 407.57 203.22 400.1 203.35 392.62 203.43 385.14 203.49 377.66 203.22 370.16 203.06 362.65 203.05 355.13 202.91 347.57 203.08 339.99 203.59 332.39 204.18 324.75 205.24 317.09 206.8 309.42 208.59 301.71 210.95 294.01 213.87 286.35 217.1 278.7 220.9 271.13 225.23 263.69 229.88 256.34 235.02 249.19 240.6 242.32 246.44 235.64 252.65 229.34 259.19 223.48 265.9 217.94 272.86 212.94 280.01 208.56 287.27 204.6 294.67 201.31 302.17 198.74 309.71 196.61 317.32 195.2 324.97 194.51 332.62 194.16 340.3 194.45 347.98 195.32 355.65 196.32 363.32 197.74 370.98 199.48 378.63 201.07 386.26 202.78 393.86 204.51 401.46 205.8 409.03 206.93 416.53 207.86" stroke-dasharray="2 5" transform="rotate(28.28, 400, 400)" opacity="0.64"></path><path d="M411.01 219.27C418.03 219.57 424.76 219.64 431.19 219.48 440.64 218.39 457.8 215.34 465.41 213.82 478.61 212.03 494.29 214.74 498.22 218 501.98 222.4 508.99 234.63 512.66 242.26 515.55 247.78 518.66 253.7 522.08 259.96 526.09 266.41 530.54 273.12 535.47 280.03 541.07 287.07 547.17 294.25 553.74 301.52 560.88 308.85 568.37 316.25 576.06 323.66 583.99 331.1 591.84 338.53 599.41 345.94 606.69 353.35 613.29 360.73 619 368.04 623.87 375.36 627.5 382.61 629.71 389.77 630.74 396.94 630.21 404.01 628.08 410.95 624.81 417.9 620.22 424.55 614.54 430.89 608.23 437.21 601.26 443.21 593.9 448.86 586.57 454.49 579.26 459.75 572.18 464.64 565.66 469.48 559.63 473.94 554.19 478 543.13 488.76 534.6 501.72 533.45 505.29 531.63 513.19 525.79 528.07 522.08 534.75 519.26 539.94 515.9 545.55 512.03 551.59 507.98 558.16 503.45 565.06 498.47 572.2 493.36 579.62 487.86 587.06 482.01 594.34 476.08 601.5 469.86 608.19 463.38 614.19 456.87 619.6 450.15 624.02 443.25 627.26 436.34 629.52 429.27 630.42 422.08 629.87 414.88 628.23 407.73 625.25 400.63 621.06 393.54 616.11 386.48 610.27 379.49 603.74 372.47 596.94 365.49 589.81 358.55 582.55 351.57 575.5 344.61 568.6 337.67 561.99 330.69 555.93 323.72 550.3 316.77 545.13 309.78 540.64 302.82 536.63 295.91 533.04 288.98 530.09 282.13 527.46 275.4 525.07 268.7 523.16 262.17 521.34 255.86 519.52 246.72 517.14 230.42 511.58 223.52 508.07 217.58 504.17 209.01 494.15 206.45 488.01 204.93 481.33 204.83 465.91 205.99 457.27 206.87 451.36 208.01 445.15 209.34 438.65 210.43 432.14 211.59 425.36 212.76 418.34 213.52 411.31 214.21 404.22 214.8 397.07 214.98 389.93 215.1 382.73 215.2 375.5 214.97 368.26 214.82 360.98 214.79 353.66 214.61 346.34 214.68 338.98 215.05 331.6 215.45 324.21 216.25 316.8 217.5 309.41 218.91 302.03 220.84 294.68 223.27 287.41 225.97 280.2 229.19 273.1 232.92 266.18 236.93 259.4 241.42 252.85 246.35 246.62 251.52 240.61 257.08 234.99 262.98 229.83 269.07 224.99 275.43 220.69 282.02 216.98 288.74 213.65 295.63 210.95 302.64 208.92 309.73 207.27 316.92 206.26 324.15 205.9 331.42 205.81 338.73 206.27 346.03 207.24 353.35 208.29 360.67 209.7 367.95 211.38 375.24 212.88 382.49 214.49 389.68 216.12 396.87 217.31 403.99 218.38 411 219.27" stroke-dasharray="3 1" transform="rotate(32.32, 400, 400)" opacity="0.70"></path><path d="M404.41 230.68C410.93 230.98 417.17 231.08 423.09 231 431.8 230.07 447.54 227.37 454.51 225.97 466.78 224.03 481.96 225.56 486.11 228.1 490.29 231.62 498.67 241.8 503.23 248.33 506.72 253.1 510.46 258.27 514.5 263.79 519.07 269.51 524.03 275.52 529.39 281.75 535.29 288.13 541.59 294.69 548.23 301.37 555.28 308.14 562.54 315 569.88 321.9 577.33 328.85 584.61 335.82 591.52 342.77 598.11 349.75 604.02 356.69 609.06 363.58 613.34 370.48 616.47 377.31 618.32 384.03 619.13 390.77 618.55 397.4 616.55 403.89 613.54 410.38 609.35 416.58 604.16 422.46 598.4 428.33 591.99 433.88 585.18 439.1 578.32 444.31 571.4 449.17 564.6 453.69 558.22 458.19 552.2 462.36 546.62 466.18 539.53 471.75 529.03 481.48 525.41 485.77 521.26 494.36 516.49 508.41 514.43 514.07 512.02 520.72 504.95 536.42 500.22 545.48 496.79 552.03 492.92 558.8 488.63 565.69 484.23 572.76 479.44 579.75 474.29 586.51 469.07 593.1 463.53 599.19 457.7 604.62 451.83 609.47 445.71 613.4 439.35 616.26 432.99 618.25 426.42 619.01 419.66 618.46 412.9 616.96 406.12 614.25 399.35 610.45 392.57 605.96 385.79 600.63 379.02 594.64 372.24 588.36 365.46 581.72 358.69 574.89 351.91 568.17 345.13 561.51 338.36 555.02 331.57 548.95 324.8 543.2 318.06 537.82 311.31 532.99 304.61 528.56 297.98 524.51 291.38 521.01 284.88 517.82 278.53 514.89 272.27 512.4 266.19 510.06 260.37 507.79 252.01 504.8 237.37 498.55 231.31 494.99 226.17 491.21 218.99 481.93 216.99 476.36 215.89 470.34 216.3 456.41 217.57 448.54 218.48 443.16 219.62 437.45 220.93 431.45 222.01 425.44 223.15 419.13 224.29 412.56 225.06 405.98 225.76 399.29 226.38 392.52 226.6 385.76 226.77 378.91 226.91 372.01 226.74 365.1 226.62 358.14 226.6 351.14 226.41 344.15 226.42 337.11 226.69 330.08 226.93 323.05 227.53 316.03 228.51 309.05 229.6 302.11 231.14 295.24 233.14 288.48 235.34 281.8 238.03 275.29 241.18 268.98 244.57 262.84 248.42 256.96 252.69 251.42 257.19 246.11 262.07 241.2 267.3 236.76 272.71 232.61 278.42 228.98 284.37 225.91 290.46 223.18 296.75 221.03 303.19 219.48 309.73 218.25 316.38 217.6 323.1 217.51 329.88 217.63 336.71 218.23 343.55 219.26 350.42 220.33 357.29 221.7 364.12 223.3 370.97 224.72 377.77 226.21 384.5 227.73 391.23 228.84 397.88 229.83 404.4 230.68" stroke-dasharray="5 6" transform="rotate(36.36, 400, 400)" opacity="0.18"></path><path d="M397.37 242.08C406.29 242.46 422.71 241.74 430.16 240.82 439.87 238.63 448.36 236.88 455.68 236.01 463.08 235.18 469.56 236.03 475.39 238.7 481.87 242.28 488.35 247.86 495.26 255.22 503.68 263.52 513.21 273.32 524 284.22 536.47 295.68 549.91 307.89 563.61 320.45 577.31 333.25 589.54 346.18 598.98 358.96 602.69 365.37 605.37 371.73 606.89 378 607.51 384.27 606.89 390.44 605.01 396.49 602.26 402.53 598.44 408.29 593.73 413.77 588.49 419.23 582.64 424.4 576.37 429.27 563.7 439 551.03 447.54 539.35 454.94 529.82 462.45 521.99 469.06 515.75 475.01 511.64 481.57 508.3 488.04 505.12 494.8 502.79 502.91 499.66 511.93 495.36 521.99 490.97 533.65 485.04 546.23 477.58 559.19 469.83 572.47 460.63 584.77 450.18 594.92 444.9 599.25 439.34 602.73 433.52 605.23 427.69 606.96 421.62 607.59 415.32 607.06 409.02 605.69 402.66 603.24 396.25 599.81 389.85 595.75 383.4 590.92 376.94 585.46 364.01 573.76 350.98 560.99 338.01 548.21 325.06 536.63 312.21 526.09 299.71 516.8 287.44 509.4 275.77 502.99 265.07 497.2 255.06 492.61 246.4 487.88 239.47 482.6 233.6 477.68 229.65 471.71 227.75 464.53 226.66 457.31 227.22 448.77 229.21 438.94 230.7 431.38 234.16 414.72 235.83 405.67 236.6 399.55 237.31 393.29 237.95 386.94 238.22 380.59 238.44 374.16 238.63 367.65 238.14 354.67 237.98 341.46 238.46 328.25 238.75 315.19 240.36 302.27 243.46 289.85 247.18 277.88 252.66 266.74 259.73 256.87 267.62 247.91 276.93 240.63 287.34 235.38 298.31 231.28 310.07 229.26 322.26 229.33 334.73 229.99 347.42 232.1 360.04 235.25 366.39 236.56 372.7 237.94 378.93 239.34 385.17 240.36 391.33 241.28 397.36 242.08" stroke-dasharray="7 2" transform="rotate(40.400000000000006, 400, 400)" opacity="0.50"></path><path d="M390.59 253.49C401.73 253.66 411.89 253.34 421.04 252.66 430.16 250.75 438.32 249.19 445.57 248.34 453.01 247.38 459.84 247.81 466.31 249.81 473.47 252.47 480.84 256.92 488.72 263 497.92 269.89 508.06 278.22 519.17 287.66 531.51 297.66 544.41 308.47 557.17 319.74 569.66 331.28 580.55 343.05 588.75 354.76 594.46 366.56 596.18 378.18 593.47 389.39 587.77 400.6 578.71 410.82 567.47 420.01 555.76 429.21 543.75 437.44 532.34 444.78 522.58 452.31 514.14 459.22 507.04 465.72 501.81 472.87 497.39 480.12 493.33 487.73 490.22 496.53 486.67 506.13 482.31 516.55 478.08 528.18 472.63 540.39 465.89 552.64 458.99 564.92 450.77 576.07 441.33 585.12 431.78 592.23 421.12 595.95 409.47 595.65 397.83 592.47 385.81 585.69 373.63 576.19 361.49 565.51 349.21 553.64 336.99 541.51 324.88 530.19 312.93 519.54 301.39 509.86 290.19 501.74 279.66 494.48 270.16 487.86 261.35 482.38 253.88 476.95 248.07 471.25 243.19 466.01 240.06 460.01 238.76 453.08 238.1 446.21 238.89 438.22 240.93 429.1 242.65 419.94 244.89 409.65 247.37 398.29 248.55 386.93 249.54 375.09 250.35 362.99 250.01 350.95 249.93 338.73 250.37 326.59 250.49 314.64 251.73 302.95 254.22 291.85 257.16 281.23 261.63 271.52 267.56 263.09 274.16 255.51 282.12 249.52 291.17 245.4 300.74 242.22 311.15 240.88 322.08 241.34 333.29 242.2 344.8 244.26 356.32 247.21 367.95 249.37 379.45 251.57 390.58 253.49" stroke-dasharray="7 1" transform="rotate(44.44, 400, 400)" opacity="0.36"></path><path d="M384.73 264.89C394.98 265.12 404.45 264.94 413.12 264.47 421.81 262.86 429.78 261.52 437.12 260.75 444.69 259.74 451.93 259.89 459.04 261.36 466.82 263.28 474.91 266.75 483.52 271.69 493.2 277.28 503.64 284.23 514.75 292.28 526.68 300.83 538.82 310.22 550.53 320.17 561.75 330.38 571.33 340.92 578.37 351.53 583.21 362.22 584.52 372.86 581.94 383.22 576.8 393.59 568.65 403.16 558.48 411.9 547.74 420.68 536.49 428.73 525.52 436.14 515.76 443.77 506.96 451.03 499.23 458.09 493.1 465.76 487.72 473.64 482.8 481.91 478.86 491.17 474.73 501.08 470.1 511.58 465.75 522.94 460.49 534.58 454.19 545.99 447.86 557.22 440.38 567.22 431.79 575.2 423.13 581.42 413.4 584.61 402.7 584.25 392 581.4 380.9 575.35 369.61 566.82 358.37 557.15 347.01 546.24 335.74 534.86 324.63 523.98 313.74 513.46 303.35 503.62 293.33 495.01 284.03 487.11 275.78 479.81 268.19 473.54 261.9 467.44 257.14 461.25 253.17 455.58 250.78 449.4 250.01 442.54 249.7 435.82 250.66 428.21 252.7 419.65 254.38 411.09 256.53 401.55 258.9 391.06 260.1 380.57 261.15 369.67 262.06 358.59 261.88 347.57 261.92 336.46 262.36 325.52 262.41 314.8 263.38 304.43 265.4 294.73 267.68 285.5 271.3 277.21 276.21 270.18 281.63 263.9 288.33 259.09 296.07 255.96 304.26 253.57 313.31 252.78 322.95 253.53 332.84 254.49 343.12 256.47 353.52 259.19 364.01 261.13 374.49 263.12 384.73 264.89" stroke-dasharray="5 6" transform="rotate(48.48, 400, 400)" opacity="0.08"></path><path d="M380.37 276.3C389.78 276.57 398.64 276.53 406.93 276.26 415.27 274.95 423.14 273.86 430.62 273.22 438.35 272.26 445.97 272.24 453.61 273.31 461.84 274.66 470.44 277.33 479.48 281.3 489.35 285.75 499.77 291.45 510.57 298.2 521.87 305.36 533.08 313.39 543.64 322.04 553.58 330.92 561.89 340.23 567.86 349.74 571.89 359.31 572.84 368.97 570.4 378.52 565.79 388.08 558.52 397.06 549.38 405.44 539.64 413.86 529.23 421.8 518.83 429.31 509.28 437.05 500.36 444.63 492.26 452.15 485.44 460.22 479.3 468.55 473.63 477.24 468.87 486.7 464.11 496.65 459.1 506.96 454.45 517.83 449.17 528.74 443.1 539.2 437.09 549.33 430.14 558.2 422.24 565.16 414.31 570.56 405.43 573.26 395.66 572.84 385.89 570.31 375.76 564.95 365.45 557.35 355.22 548.69 344.9 538.76 334.73 528.22 324.74 517.93 315.04 507.73 305.88 497.97 297.1 489.13 289.08 480.82 282.09 473.04 275.69 466.12 270.5 459.44 266.72 452.8 263.58 446.67 261.83 440.24 261.49 433.36 261.47 426.66 262.54 419.3 264.53 411.2 266.15 403.13 268.18 394.26 270.44 384.61 271.64 374.97 272.75 365.04 273.74 355.02 273.74 345.08 273.92 335.15 274.43 325.48 274.48 316.02 275.27 307.01 276.95 298.71 278.72 290.85 281.63 283.92 285.67 278.2 290.07 273.09 295.62 269.32 302.15 267.04 309.05 265.3 316.8 264.93 325.17 265.86 333.77 266.86 342.83 268.7 352.11 271.17 361.48 272.89 370.96 274.66 380.37 276.3" stroke-dasharray="3 1" transform="rotate(52.52, 400, 400)" opacity="0.12"></path><path d="M377.93 287.7C386.56 288.01 394.88 288.09 402.84 288.02 410.86 287 418.64 286.17 426.24 285.7 434.07 284.85 441.94 284.77 449.93 285.59 458.41 286.52 467.22 288.57 476.39 291.73 486.14 295.23 496.24 299.85 506.48 305.44 516.93 311.36 527.08 318.12 536.44 325.55 545.11 333.16 552.22 341.28 557.2 349.72 560.52 358.22 561.15 366.93 558.86 375.71 554.76 384.49 548.32 392.92 540.18 400.96 531.43 409.06 521.92 416.88 512.21 424.46 503.06 432.27 494.26 440.05 486.03 447.89 478.79 456.17 472.09 464.72 465.84 473.55 460.39 482.95 455.04 492.68 449.62 502.56 444.59 512.75 439.15 522.78 433.18 532.23 427.31 541.24 420.72 549.01 413.39 555 406.05 559.63 397.93 561.89 389.05 561.44 380.18 559.21 371.02 554.49 361.76 547.78 352.58 540.1 343.38 531.17 334.39 521.54 325.59 511.97 317.13 502.28 309.26 492.81 301.73 483.99 294.97 475.52 289.19 467.48 283.91 460.13 279.74 453.01 276.82 446.03 274.4 439.5 273.19 432.83 273.19 425.9 273.38 419.17 274.5 411.98 276.41 404.28 277.94 396.61 279.84 388.35 281.98 379.51 283.17 370.68 284.32 361.71 285.4 352.78 285.58 343.91 285.92 335.18 286.51 326.79 286.63 318.59 287.36 310.9 288.8 303.96 291.39 294.54 301.73 281.63 309.48 278.59 315.21 277.36 321.77 277.3 328.97 278.31 336.35 279.28 344.24 280.95 352.47 283.14 360.76 284.64 369.3 286.21 377.93 287.7" stroke-dasharray="8 4" transform="rotate(56.56, 400, 400)" opacity="0.93"></path><path d="M377.65 299.11C385.56 299.44 393.35 299.64 400.99 299.74 408.68 299 416.32 298.43 423.93 298.17 431.74 297.49 439.69 297.44 447.79 298.11 456.25 298.78 465 300.38 473.99 302.92 483.34 305.66 492.86 309.38 502.3 313.99 511.76 318.82 520.78 324.47 528.91 330.79 536.35 337.24 542.34 344.26 546.41 351.7 549.08 359.17 549.45 366.98 547.33 375.02 543.7 383.07 538.05 390.96 530.87 398.65 523.1 406.4 514.52 414.05 505.61 421.62 497.02 429.38 488.54 437.21 480.42 445.15 473.03 453.42 466.02 461.93 459.39 470.64 453.43 479.73 447.61 488.99 441.83 498.24 436.44 507.6 430.81 516.65 424.85 525.03 419.03 532.93 412.71 539.64 405.84 544.73 398.99 548.65 391.53 550.51 383.51 550.03 375.48 548.08 367.3 543.97 359.11 538.11 350.98 531.37 342.93 523.45 335.15 514.78 327.54 506.03 320.33 497 313.71 488.01 307.4 479.45 301.82 471.07 297.15 463 292.89 455.46 289.62 448.11 287.45 440.93 285.63 434.13 284.85 427.3 285.1 420.37 285.43 413.61 286.54 406.59 288.34 399.25 289.75 391.96 291.52 384.27 293.51 376.21 294.69 368.16 295.87 360.13 297.02 352.25 297.38 344.43 297.88 336.86 298.6 329.7 299.2 319.48 303.04 302.85 306.8 297.01 311.56 292.72 325.5 289.78 334.42 290.85 340.69 291.73 347.53 293.2 354.79 295.11 362.09 296.39 369.74 297.76 377.65 299.11" stroke-dasharray="6 7" transform="rotate(60.599999999999994, 400, 400)" opacity="0.43"></path><path d="M379.56 310.51C386.78 310.87 394.05 311.16 401.32 311.41 408.64 310.94 416.04 310.63 423.51 310.58 431.13 310.12 438.93 310.16 446.87 310.79 455.07 311.33 463.47 312.62 471.99 314.71 480.69 316.88 489.41 319.9 497.89 323.7 506.26 327.64 514.09 332.34 521.01 337.7 527.28 343.14 532.23 349.18 535.49 355.69 537.6 362.24 537.75 369.21 535.79 376.54 532.61 383.87 527.7 391.21 521.43 398.51 514.63 405.86 507.01 413.25 498.96 420.66 491.06 428.22 483.1 435.9 475.3 443.7 468.01 451.74 460.95 459.97 454.19 468.29 447.93 476.84 441.83 485.42 435.83 493.86 430.15 502.27 424.38 510.28 418.44 517.57 412.65 524.38 406.54 530.09 400.08 534.34 393.65 537.61 386.81 539.11 379.58 538.62 372.36 536.93 365.11 533.4 357.96 528.32 350.86 522.5 343.93 515.56 337.33 507.88 330.86 500.03 324.83 491.8 319.4 483.46 314.19 475.35 309.69 467.31 306.01 459.45 302.63 451.95 300.12 444.61 298.56 437.42 297.23 430.54 296.77 423.68 297.18 416.83 297.58 410.14 298.65 403.32 300.3 396.36 301.59 389.44 303.2 382.31 305.05 375 306.2 367.69 307.39 360.55 308.6 353.68 309.12 346.85 309.78 340.35 310.63 334.33 311.42 325.77 315 312.26 318.24 307.71 322.19 304.39 333.87 302.4 341.45 303.44 346.78 304.2 352.69 305.44 359.08 307.07 365.49 308.13 372.34 309.3 379.56 310.51" stroke-dasharray="3 4" transform="rotate(64.64, 400, 400)" opacity="0.75"></path><path d="M383.47 321.92C390.04 322.28 396.76 322.66 403.58 323.04 410.45 322.81 417.47 322.75 424.6 322.91 431.85 322.68 439.27 322.87 446.81 323.53 454.49 324.04 462.29 325.17 470.09 326.95 477.95 328.73 485.7 331.22 493.12 334.4 500.33 337.64 506.97 341.56 512.73 346.11 517.9 350.7 521.89 355.88 524.44 361.57 526.06 367.28 526.03 373.47 524.25 380.1 521.5 386.73 517.28 393.5 511.89 400.34 506.01 407.21 499.35 414.21 492.22 421.29 485.11 428.48 477.81 435.82 470.53 443.25 463.57 450.83 456.72 458.53 450.06 466.24 443.76 474.05 437.59 481.8 431.53 489.29 425.74 496.68 419.94 503.61 414.09 509.83 408.36 515.59 402.48 520.35 396.42 523.84 390.39 526.52 384.13 527.71 377.66 527.22 371.19 525.77 364.82 522.76 358.66 518.44 352.52 513.47 346.64 507.5 341.14 500.81 335.73 493.9 330.77 486.56 326.39 479 322.17 471.55 318.6 464.04 315.76 456.61 313.12 449.41 311.23 442.29 310.14 435.31 309.17 428.55 308.94 421.84 309.42 415.21 309.84 408.7 310.82 402.17 312.3 395.63 313.45 389.13 314.89 382.56 316.59 375.98 317.69 369.39 318.88 363.09 320.13 357.14 321.2 348.46 323.6 333.57 325.31 327.68 330.31 319.62 343.38 315.15 349.88 316.06 356.99 317.16 373.85 320.35 383.47 321.92" stroke-dasharray="3 3" transform="rotate(68.68, 400, 400)" opacity="0.98"></path><path d="M389 333.33C400.83 333.47 413.59 334.02 426.75 335.11 440.18 334.84 454.22 336.18 468.01 339.44 481.69 342.49 494.26 347.97 504.04 355.72 511.82 363.54 515.12 373.53 512.71 385.41 507.35 397.3 497.56 410.05 485.34 423.15 472.87 436.5 459.65 450.45 446.78 464.24 434.87 478.06 423.15 491.08 411.75 501.77 400.77 510.85 389.43 516 377.92 515.81 366.41 512.65 355.78 504.65 346.65 493.53 337.76 481.5 330.79 467.96 326.33 454.25 322.3 441.04 320.77 427.89 321.78 415.29 322.4 403.03 324.63 390.83 328.13 379.06 329.7 367.29 331.82 357 334.42 348.64 336.77 337.47 348.6 327.61 359.38 328.66 367.22 329.23 377.17 330.9 389 333.33" stroke-dasharray="4 4" transform="rotate(72.72, 400, 400)" opacity="0.10"></path><path d="M395.61 344.73C406.13 344.99 417.58 345.79 429.4 347.16 441.34 347.37 453.65 348.91 465.46 351.98 476.96 354.73 487.24 359.48 494.93 366.17 501.02 372.84 503.41 381.49 501.18 392 496.73 402.5 488.58 413.94 478.25 425.75 467.52 437.68 455.81 450.03 444.12 462.02 432.98 473.83 421.91 484.7 411.24 493.37 400.87 500.7 390.47 504.74 380.34 504.41 370.21 501.83 361.23 495.26 353.8 486.01 346.5 475.88 340.97 464.21 337.6 452.13 334.41 440.23 333.29 428.23 334.24 416.72 334.72 405.42 336.59 394.36 339.66 383.98 341.2 373.61 343.39 364.83 346.08 357.92 348.86 348.66 360.02 340.54 369.53 341.21 376.36 341.45 385.09 342.69 395.61 344.73" stroke-dasharray="1 9" transform="rotate(76.76, 400, 400)" opacity="0.76"></path><path d="M402.65 356.14C411.82 356.48 421.78 357.45 431.97 359.01 442.18 359.65 452.52 361.39 462.2 364.35 471.51 366.96 479.59 371.17 485.42 376.99 490.02 382.73 491.66 390.18 489.64 399.29 486.03 408.39 479.42 418.35 470.93 428.59 462 438.86 452 449.36 441.8 459.35 431.85 469.08 421.84 477.83 412.21 484.62 402.76 490.36 393.47 493.42 384.69 493 375.91 490.96 368.4 485.7 362.38 478.21 356.4 469.96 352.02 460.25 349.44 449.99 346.86 439.72 345.96 429.21 346.74 419.07 347.06 409.04 348.57 399.29 351.2 390.31 352.67 381.33 354.84 373.9 357.55 368.18 360.65 360.44 371.38 353.44 379.86 353.67 385.86 353.61 393.47 354.46 402.65 356.14" stroke-dasharray="4 7" transform="rotate(80.80000000000001, 400, 400)" opacity="0.80"></path><path d="M409.42 367.54C417.19 367.93 425.5 368.99 433.88 370.65 442.23 371.61 450.49 373.5 458.03 376.35 465.23 378.88 471.3 382.66 475.49 387.69 478.83 392.64 479.86 398.97 478.1 406.64 475.26 414.31 470.08 422.63 463.34 431.11 456.21 439.57 448.04 448.08 439.54 456.02 431.1 463.68 422.49 470.42 414.18 475.51 405.97 479.83 397.96 482.05 390.54 481.6 383.12 480.03 376.92 475.96 372.07 470.11 367.21 463.66 363.7 455.91 361.65 447.58 359.51 439.14 358.71 430.36 359.25 421.82 359.39 413.32 360.55 405.05 362.74 397.49 365.12 386.82 372.07 372.5 377 368.84 382.32 366.23 398.39 365.95 409.42 367.54" stroke-dasharray="4 1" transform="rotate(84.84, 400, 400)" opacity="0.13"></path><path d="M415.28 378.95C427.87 379.1 441.56 382.2 452.81 387.76 463.03 392.38 468.77 401.01 466.57 413.41 461.67 425.8 450.35 439.8 437.06 451.84 423.65 463 409.39 470.37 397.32 470.19 385.24 467.21 377.29 457.31 374.01 444.67 370.27 431.52 370.31 417.12 374.27 404.88 376.06 392.64 380.79 384.66 387.58 381.24 393.32 377.13 402.68 376.34 415.28 378.95" stroke-dasharray="11 8" transform="rotate(88.88, 400, 400)" opacity="0.52"></path><path d="M419.63 390.35C429.17 390.71 438.9 393.63 446.44 398.43 453.33 402.63 456.91 409.63 455.03 419 451.67 428.37 443.71 438.42 434.11 446.67 424.29 454.35 413.56 459.18 404.35 458.79 395.14 456.83 389.01 450.01 386.3 441.07 383.21 431.71 382.94 421.12 385.81 411.85 387.41 402.57 391.57 396.26 397.33 393.2 402.46 389.66 410.09 388.58 419.63 390.35" stroke-dasharray="3 1" transform="rotate(92.92, 400, 400)" opacity="0.49"></path><path d="M422.07 401.76C434.86 401.92 445.59 410.35 443.49 422.92 438.83 435.49 423.43 447.55 410.96 447.38 398.49 444.49 393.15 430.25 397.35 417.78 399.23 405.29 409.26 399.05 422.07 401.76" stroke-dasharray="6 2" transform="rotate(96.96, 400, 400)" opacity="0.57"></path></g></svg>