<svg xmlns="http://www.w3.org/2000/svg" version="1.1" xmlns:xlink="http://www.w3.org/1999/xlink" xmlns:svgjs="http://svgjs.dev/svgjs" viewBox="0 0 800 800"><defs><linearGradient x1="50%" y1="0%" x2="50%" y2="100%" id="ccchaos-grad"><stop stop-color="var(--theme-color--pop)" stop-opacity="1" offset="0%"></stop><stop stop-color="var(--theme-color--ink)" stop-opacity="1" offset="100%"></stop></linearGradient></defs><g stroke-width="2" stroke="url(#ccchaos-grad)" fill="none" stroke-linecap="round"><path d="M359.45 121.35C363.16 106.23 381.23 101.95 390.27 113.9Q396.69 121.34 403.66 128.78 411.15 136.23 419.08 143.69 427.38 151.18 435.98 158.71 444.77 166.27 453.67 173.87 462.57 181.53 471.38 189.24 479.98 197.02 488.28 204.87 496.19 212.8 503.62 220.8 510.48 228.89 516.72 237.07 522.27 245.35 527.09 253.72 531.17 262.2 534.48 270.78 537.04 279.47 538.87 288.27 540 297.18 540.5 306.2 540.43 315.33 539.87 324.56 538.92 333.91 537.69 343.36 536.28 352.91 534.82 362.57 533.42 372.31 532.21 382.15 531.31 392.08 530.83 402.08 530.87 412.16 531.54 422.31 532.92 432.51 535.07 442.77 538.06 453.06 541.93 463.39 546.68 473.75 552.32 484.12 558.84 494.5 566.19 504.87 574.32 515.22 583.15 525.56 592.59 535.85 602.54 546.1 612.88 556.3 623.48 566.43 634.21 576.48 644.93 586.45 655.5 596.32 665.77 606.09 675.62 615.74 684.92 625.27 693.55 634.68 701.4 643.94 708.39 653.06 714.45 662.04 719.52 670.85 723.58 679.51 726.61 688.01 728.62 696.33C729.82 708.02 712.28 724.04 698.1 724.53Q680.63 722.7 663.15 718.34 645.67 711.77 628.2 703.47 610.72 694.08 593.24 684.28 575.77 674.82 558.29 666.4 540.81 659.65 523.34 655.07 505.86 653.02 488.38 653.63 470.91 656.87 453.43 662.49 435.95 670.07 418.48 679.05 401 688.75 383.52 698.45 366.05 707.43 348.57 715.01 331.1 720.63 313.62 723.86 296.14 724.47 278.67 722.41 261.19 717.83 243.71 711.08 226.24 702.66 208.76 693.2 191.29 683.4 173.81 674.01 156.33 665.71 138.86 659.14C124.68 655.42 116.9 640.13 124.22 629.36Q133.8 614.94 142.8 600.88 150.67 587.36 157.82 574.08 163.8 561.13 169.18 548.29 173.83 535.56 178.27 522.82 182.8 509.97 187.66 496.99 193.51 483.71 200.19 470.2 208.53 456.24 217.95 441.98 223.3 434.66 229 427.22 235.01 419.67 241.33 412 247.89 404.21 254.67 396.3 261.6 388.28 268.63 380.13 275.7 371.86 282.75 363.47 289.7 354.98 296.51 346.37 303.09 337.65 309.4 328.84 315.38 319.92 320.98 310.91 326.16 301.82 330.89 292.64 335.13 283.39 338.89 274.07 342.15 264.68 344.92 255.25 347.22 245.76 349.09 236.23 350.56 226.68 351.68 217.09 352.51 207.49 353.12 197.87 353.59 188.25 353.98 178.64 354.39 169.03 354.89 159.44 355.57 149.87 356.51 140.33 358.62 126.08 359.45 121.35" stroke-dasharray="5 8" transform="rotate(0, 400, 400)" opacity="0.05"></path><path d="M363.01 131.9C365.56 117.33 383.04 113.1 392.89 124.54Q399.68 131.66 406.92 138.79 414.56 145.93 422.54 153.08 430.77 160.25 439.17 167.46 447.68 174.7 456.18 181.97 464.6 189.3 472.84 196.67 480.82 204.11 488.46 211.61 495.67 219.17 502.38 226.81 508.54 234.53 514.08 242.33 518.97 250.22 523.19 258.2 529.2 274.49 533.17 291.07 534.11 308.17 533.58 325.58 532.64 334.46 531.47 343.45 530.16 352.53 528.81 361.71 527.54 370.99 526.44 380.36 525.63 389.81 525.2 399.35 525.24 408.96 525.86 418.64 527.11 428.39 529.07 438.2 531.78 448.06 535.28 457.96 539.6 467.9 544.73 477.87 550.67 487.86 557.39 497.87 564.85 507.87 572.98 517.87 581.72 527.85 590.97 537.81 600.65 547.74 610.64 557.62 620.83 567.45 631.1 577.22 641.33 586.92 651.39 596.54 661.16 606.07 670.52 615.51 679.36 624.84 687.58 634.06 695.09 643.16 701.81 652.14 707.67 660.98 712.64 669.69 716.67 678.25 719.77 686.67C722.59 698.51 707.46 713.05 693.7 712.2Q676.74 709 659.79 703.64 642.83 696.47 625.87 688 608.92 678.82 591.96 669.55 575.01 660.84 558.05 653.3 541.09 647.43 524.14 643.66 507.18 642.23 490.22 643.25 473.27 646.65 456.31 652.19 439.35 659.49 422.4 668.05 405.44 677.27 388.48 686.51 371.53 695.14 354.57 702.56 337.61 708.25 320.66 711.83 303.7 713.05 286.74 711.81 269.79 708.22 252.83 702.5 235.87 695.07 218.92 686.44 201.96 677.19 185 667.98 168.05 659.43 151.09 652.14C137.33 647.5 129.58 631.97 136.41 622.14Q145.21 608.89 153.4 595.92 160.46 583.33 166.82 570.9 172.14 558.66 176.94 546.47 181.18 534.26 185.3 521.99 189.64 509.53 194.37 496.89 200.14 483.91 206.72 470.69 214.91 456.99 224.13 442.99 229.34 435.81 234.87 428.51 240.71 421.1 246.82 413.58 253.18 405.95 259.73 398.21 266.44 390.35 273.25 382.38 280.1 374.3 286.94 366.12 293.71 357.83 300.36 349.44 306.82 340.96 313.04 332.38 318.97 323.71 324.56 314.97 329.77 306.14 334.57 297.24 338.93 288.28 342.83 279.26 346.27 270.18 349.24 261.05 351.76 251.89 353.85 242.69 355.53 233.46 356.85 224.21 357.84 214.94 358.58 205.67 359.1 196.39 359.49 187.12 359.82 177.86 360.14 168.61 360.56 159.39 361.12 150.2 362.47 136.47 363.01 131.9" stroke-dasharray="10 4" transform="rotate(4.04, 400, 400)" opacity="0.09"></path><path d="M367.32 142.46C368.92 128.42 385.82 124.24 396.26 135.19Q410.66 148.82 426.21 162.49 442.35 176.24 458.49 190.11 473.99 204.14 488.26 218.39 500.78 232.88 511.12 247.65 519.03 262.74 524.42 278.17 527.37 293.97 528.18 310.14 527.28 326.7 525.26 343.64 522.8 360.97 520.66 378.66 519.55 396.7 520.17 415.05 523.07 433.68 528.69 452.54 537.24 471.59 548.75 490.77 563.01 510.01 579.61 529.27 597.96 548.47 617.33 567.55 636.88 586.44 655.74 605.08 673.1 623.4 688.19 641.34 700.44 658.86 709.43 675.89C713.79 687.84 701.09 700.94 687.78 698.92Q671.39 694.58 655 688.44 638.61 680.91 622.21 672.46 605.82 663.63 589.43 654.99 573.03 647.08 556.64 640.42 540.25 635.41 523.85 632.39 507.46 631.55 491.07 632.93 474.67 636.46 458.28 641.9 441.89 648.92 425.49 657.05 409.1 665.79 392.71 674.58 376.31 682.85 359.92 690.08 343.53 695.81 327.13 699.68 310.74 701.43 294.35 700.95 277.95 698.28 261.56 693.59 245.16 687.17 228.77 679.43 212.38 670.87 195.98 662.04 179.59 653.49 163.2 645.77C149.9 640.46 142.09 624.83 148.38 615.81Q156.46 603.55 163.7 591.55 170.06 579.74 175.57 568.06 180.34 556.42 184.55 544.76 188.44 533.01 192.29 521.12 196.41 509.02 201.11 496.66 206.66 483.99 213.29 470.98 221.16 457.59 230.33 443.81 240.76 429.6 252.33 414.98 264.8 399.94 277.85 384.48 291.11 368.63 304.16 352.4 316.6 335.82 328.02 318.94 338.09 301.78 346.59 284.39 353.36 266.82 358.4 249.1 361.85 231.3 363.95 213.44 365.06 195.59 365.65 177.78 366.22 160.06 367.32 142.46 367.32 142.46 367.32 142.46" stroke-dasharray="8 3" transform="rotate(8.08, 400, 400)" opacity="0.13"></path><path d="M372.22 152.99C373.11 139.51 389.47 135.39 400.27 145.85Q414.76 158.86 429.97 171.91 445.41 185.03 460.52 198.26 474.78 211.63 487.68 225.2 498.81 238.98 507.85 253.02 514.64 267.35 519.15 281.98 521.5 296.95 521.98 312.26 520.99 327.93 519.07 343.96 516.82 360.35 514.88 377.1 513.91 394.17 514.48 411.56 517.11 429.24 522.17 447.17 529.88 465.32 540.29 483.63 553.27 502.06 568.49 520.56 585.5 539.07 603.68 557.53 622.34 575.89 640.72 594.08 658.09 612.05 673.74 629.73 687.08 647.09 697.66 664.06C703.4 676.01 693.06 687.79 680.26 684.79Q664.47 679.54 648.68 672.88 632.89 665.2 617.11 656.94 601.32 648.6 585.53 640.66 569.74 633.58 553.96 627.78 538.17 623.6 522.38 621.28 506.59 620.97 490.81 622.67 475.02 626.29 459.23 631.62 443.44 638.34 427.65 646.06 411.87 654.33 396.08 662.67 380.29 670.58 364.5 677.6 348.71 683.33 332.93 687.42 317.14 689.63 301.35 689.84 285.56 688.04 269.77 684.33 253.99 678.92 238.2 672.13 222.41 664.37 206.62 656.08 190.83 647.76 175.05 639.88C162.24 634.15 154.36 618.56 160.04 610.24Q167.26 598.86 173.66 587.64 179.23 576.52 184.05 565.42 188.24 554.28 192.01 543.06 195.59 531.69 199.24 520.13 203.24 508.32 207.86 496.22 213.35 483.81 219.88 471.04 227.6 457.91 236.53 444.39 246.65 430.48 257.82 416.18 269.84 401.49 282.43 386.42 295.24 370.99 307.91 355.23 320.06 339.16 331.35 322.82 341.45 306.25 350.13 289.47 357.22 272.53 362.7 255.48 366.62 238.35 369.15 221.19 370.58 204.04 371.27 186.93 371.94 161.45 372.22 152.99" stroke-dasharray="2 8" transform="rotate(12.12, 400, 400)" opacity="0.16"></path><path d="M377.59 163.52C377.99 150.6 393.82 146.55 404.75 156.51Q419.04 168.91 433.69 181.34 448.23 193.84 462.2 206.43 475.15 219.16 486.67 232.05 496.46 245.14 504.28 258.45 510.03 272.02 513.74 285.87 515.56 300.02 515.75 314.48 514.71 329.28 512.9 344.4 510.85 359.87 509.12 375.66 508.26 391.78 508.8 408.2 511.17 424.92 515.71 441.89 522.63 459.1 532 476.5 543.74 494.06 557.62 511.73 573.26 529.47 590.19 547.23 607.83 564.95 625.53 582.59 642.65 600.09 658.55 617.4 672.66 634.47 684.51 651.25C691.43 663.11 683.33 673.67 671.05 669.88Q655.91 663.98 640.77 657.03 625.63 649.4 610.49 641.49 595.35 633.74 580.21 626.55 565.07 620.32 549.93 615.37 534.78 611.97 519.64 610.31 504.5 610.47 489.36 612.45 474.22 616.13 459.08 621.33 443.94 627.75 428.8 635.07 413.66 642.88 398.52 650.77 383.38 658.31 368.24 665.1 353.1 670.78 337.96 675.04 322.82 677.65 307.68 678.47 292.54 677.47 277.4 674.68 262.26 670.27 247.12 664.47 231.98 657.58 216.84 649.99 201.7 642.09 186.56 634.31C174.28 628.37 166.29 612.99 171.34 605.27Q177.7 594.63 183.27 584.05 188.09 573.48 192.28 562.86 195.97 552.15 199.36 541.28 202.68 530.23 206.17 518.94 210.08 507.39 214.64 495.54 220.07 483.36 226.51 470.84 234.06 457.97 242.75 444.73 252.55 431.13 263.32 417.16 274.88 402.84 286.99 388.19 299.33 373.21 311.6 357.94 323.45 342.4 334.56 326.62 344.64 310.64 353.45 294.48 360.84 278.2 366.72 261.81 371.11 245.37 374.12 228.91 375.96 212.46 376.91 196.06 377.45 171.63 377.59 163.52" stroke-dasharray="5 7" transform="rotate(16.16, 400, 400)" opacity="0.20"></path><path d="M383.26 174.05C383.39 161.68 398.7 157.7 409.52 167.18Q423.36 178.98 437.23 190.8 450.73 202.68 463.46 214.64 475.07 226.72 485.24 238.94 493.73 251.34 500.4 263.94 505.21 276.77 508.2 289.85 509.55 303.19 509.52 316.82 508.44 330.75 506.74 344.98 504.89 359.53 503.35 374.38 502.61 389.55 503.12 405 505.25 420.74 509.3 436.75 515.48 452.99 523.87 469.45 534.43 486.09 547 502.88 561.29 519.78 576.93 536.75 593.43 553.75 610.28 570.73 626.91 587.65 642.76 604.45 657.31 621.1 670.09 637.56C677.97 649.24 671.92 658.71 660.19 654.35Q645.74 648.06 631.28 641.03 616.83 633.63 602.37 626.21 587.91 619.12 573.46 612.73 559 607.34 544.55 603.21 530.09 600.55 515.63 599.49 501.18 600.07 486.72 602.27 472.27 605.99 457.81 611.04 443.35 617.17 428.9 624.08 414.44 631.44 399.99 638.89 385.53 646.06 371.08 652.6 356.62 658.2 342.16 662.57 327.71 665.51 313.25 666.87 298.8 666.59 284.34 664.67 269.89 661.22 255.43 656.4 240.97 650.45 226.52 643.65 212.06 636.34 197.61 628.89C185.88 622.97 177.8 607.95 182.22 600.71Q187.72 590.67 192.51 580.62 196.65 570.5 200.27 560.27 203.53 549.89 206.61 539.32 209.72 528.54 213.1 517.5 216.94 506.18 221.46 494.56 226.83 482.62 233.16 470.35 240.54 457.75 248.99 444.81 258.45 431.54 268.81 417.93 279.91 404.01 291.53 389.79 303.4 375.29 315.24 360.53 326.75 345.53 337.64 330.33 347.65 314.96 356.56 299.45 364.19 283.82 370.44 268.12 375.3 252.37 378.81 236.61 381.12 220.87 382.44 205.18 383.16 181.81 383.26 174.05" stroke-dasharray="10 0" transform="rotate(20.200000000000003, 400, 400)" opacity="0.24"></path><path d="M389.07 184.56C389.14 172.75 403.91 168.87 414.41 177.86Q427.55 189.05 440.47 200.27 452.8 211.53 464.24 222.87 474.5 234.3 483.35 245.87 490.62 257.59 496.24 269.49 500.18 281.59 502.54 293.9 503.49 306.46 503.27 319.27 502.19 332.35 500.62 345.71 498.95 359.35 497.59 373.28 496.96 387.49 497.44 401.98 499.35 416.74 502.96 431.77 508.45 447.04 515.92 462.53 525.36 478.21 536.67 494.08 549.62 510.08 563.93 526.2 579.23 542.39 595.08 558.62 611.01 574.84 626.55 591.03 641.21 607.14 654.57 623.13C663.16 634.55 658.88 643.04 647.74 638.32Q634 631.86 620.27 624.97 606.53 617.95 592.79 611.12 579.06 604.78 565.32 599.2 551.58 594.64 537.84 591.29 524.11 589.32 510.37 588.79 496.63 589.75 482.89 592.13 469.16 595.85 455.42 600.73 441.68 606.56 427.95 613.08 414.21 620 400.47 627.01 386.73 633.81 373 640.08 359.26 645.56 345.52 650 331.78 653.2 318.05 655.02 304.31 655.39 290.57 654.27 276.83 651.73 263.1 647.88 249.36 642.88 235.62 636.97 221.88 630.39 208.14 623.44C197 617.75 188.83 603.24 192.62 596.38Q197.3 586.82 201.37 577.18 204.91 567.42 208.04 557.51 210.94 547.41 213.77 537.1 216.74 526.54 220.03 515.73 223.83 504.63 228.32 493.25 233.62 481.56 239.85 469.55 247.05 457.24 255.23 444.62 264.35 431.7 274.3 418.48 284.92 404.98 296.04 391.22 307.43 377.22 318.82 362.99 329.96 348.56 340.6 333.96 350.5 319.21 359.44 304.35 367.25 289.39 373.84 274.38 379.13 259.33 383.15 244.28 385.98 229.26 387.76 214.28 388.89 191.97 389.07 184.56" stroke-dasharray="6 8" transform="rotate(24.24, 400, 400)" opacity="0.28"></path><path d="M394.84 195.08C395.02 183.82 409.24 180.03 419.22 188.55Q431.47 199.14 443.29 209.75 454.38 220.41 464.5 231.13 473.44 241.93 481.02 252.85 487.15 263.9 491.79 275.1 494.97 286.48 496.78 298.05 497.39 309.84 497.02 321.84 495.96 334.09 494.51 346.59 493.02 359.34 491.84 372.35 491.31 385.63 491.76 399.16 493.47 412.96 496.66 427 501.52 441.28 508.14 455.78 516.52 470.49 526.61 485.39 538.26 500.45 551.24 515.65 565.27 530.97 580 546.36 595.06 561.81 610.03 577.28 624.51 592.73 638.11 608.13C647.13 619.16 644.37 626.84 633.84 621.96Q620.85 615.56 607.86 608.98 594.87 602.48 581.87 596.32 568.88 590.75 555.89 585.99 542.9 582.24 529.9 579.63 516.91 578.28 503.92 578.24 490.93 579.51 477.94 582.04 464.94 585.73 451.95 590.44 438.96 595.97 425.97 602.09 412.97 608.58 399.98 615.16 386.99 621.58 374 627.57 361 632.9 348.01 637.36 335.02 640.76 322.03 642.96 309.03 643.89 296.04 643.5 283.05 641.81 270.06 638.89 257.06 634.85 244.07 629.85 231.08 624.1 218.08 617.83C207.55 612.53 199.35 598.65 202.54 592.1Q206.47 582.91 209.89 573.6 212.9 564.12 215.63 554.47 218.24 544.61 220.89 534.52 223.75 524.18 226.99 513.59 230.76 502.72 235.22 491.57 240.46 480.14 246.57 468.43 253.58 456.43 261.49 444.16 270.25 431.61 279.77 418.81 289.93 405.76 300.54 392.49 311.42 379.01 322.35 365.33 333.1 351.49 343.44 337.51 353.17 323.4 362.09 309.2 370.04 294.93 376.89 280.61 382.58 266.27 387.09 251.94 390.45 237.63 392.76 223.37 394.5 202.13 394.84 195.08" stroke-dasharray="6 3" transform="rotate(28.28, 400, 400)" opacity="0.32"></path><path d="M400.39 205.57C400.83 194.89 414.49 191.21 423.76 199.24Q434.97 209.24 445.58 219.25 455.38 229.3 464.19 239.41 471.84 249.59 478.24 259.86 483.32 270.25 487.08 280.77 489.58 291.45 490.91 302.29 491.24 313.32 490.77 324.54 489.74 335.97 488.42 347.63 487.11 359.51 486.09 371.62 485.65 383.98 486.08 396.57 487.6 409.4 490.42 422.46 494.69 435.76 500.51 449.27 507.9 462.98 516.84 476.89 527.22 490.98 538.89 505.22 551.62 519.61 565.15 534.1 579.19 548.69 593.39 563.33 607.41 578.02 620.91 592.71C630.12 603.27 628.58 610.26 618.66 605.41Q606.43 599.26 594.2 593.14 581.98 587.27 569.75 581.84 557.52 577.07 545.3 573.11 533.07 570.12 520.85 568.2 508.62 567.42 496.39 567.8 484.17 569.34 471.94 571.98 459.71 575.62 447.49 580.13 435.26 585.35 423.04 591.1 410.81 597.16 398.58 603.32 386.36 609.36 374.13 615.05 361.9 620.21 349.68 624.63 337.45 628.16 325.22 630.68 313 632.09 300.77 632.34 288.54 631.43 276.32 629.38 264.09 626.28 251.86 622.22 239.64 617.37 227.41 611.88C217.49 607.1 209.32 593.98 211.96 587.67Q215.22 578.77 218.09 569.72 220.66 560.49 223.07 551.05 225.46 541.4 227.98 531.52 230.78 521.4 233.99 511.03 237.76 500.4 242.18 489.51 247.35 478.37 253.33 466.97 260.14 455.31 267.76 443.41 276.16 431.28 285.25 418.92 294.92 406.35 305.02 393.59 315.39 380.65 325.83 367.56 336.16 354.32 346.17 340.97 355.69 327.52 364.53 313.99 372.54 300.41 379.6 286.8 385.63 273.18 390.58 259.56 394.47 245.97 397.33 232.44 399.82 212.27 400.39 205.57" stroke-dasharray="11 5" transform="rotate(32.32, 400, 400)" opacity="0.35"></path><path d="M405.55 216.07C406.37 205.95 419.44 202.39 427.87 209.95Q437.91 219.36 447.26 228.78 455.77 238.23 463.29 247.72 469.73 257.28 475.02 266.92 479.15 276.66 482.13 286.51 484.03 296.49 484.96 306.62 485.06 316.9 484.52 327.36 483.55 338 482.36 348.83 481.21 359.86 480.34 371.09 479.99 382.55 480.39 394.21 481.75 406.09 484.22 418.19 487.96 430.5 493.04 443.02 499.51 455.74 507.36 468.65 516.53 481.74 526.91 494.99 538.34 508.4 550.62 521.94 563.52 535.6 576.77 549.36 590.1 563.18 603.21 577.07C612.34 587.07 611.71 593.49 602.41 588.84Q590.97 583.11 579.52 577.57 568.07 572.39 556.62 567.74 545.18 563.76 533.73 560.58 522.28 558.31 510.83 557.01 499.39 556.73 487.94 557.48 476.49 559.24 465.05 561.94 453.6 565.51 442.15 569.82 430.7 574.73 419.26 580.1 407.81 585.75 396.36 591.49 384.92 597.15 373.47 602.54 362.02 607.49 350.57 611.84 339.13 615.45 327.68 618.2 316.23 620.01 304.79 620.82 293.34 620.6 281.89 619.37 270.44 617.15 259 614.02 247.55 610.08 236.1 605.46C226.81 601.31 218.75 589.03 220.9 582.9Q223.58 574.24 225.99 565.41 228.22 556.38 230.39 547.15 232.63 537.7 235.08 528.03 237.84 518.13 241.05 508 244.81 497.64 249.2 487.04 254.29 476.21 260.13 465.15 266.72 453.87 274.05 442.38 282.08 430.69 290.73 418.81 299.9 406.75 309.48 394.53 319.32 382.16 329.26 369.67 339.14 357.06 348.79 344.35 358.04 331.57 366.74 318.74 374.75 305.86 381.95 292.96 388.25 280.06 393.6 267.17 397.98 254.31 401.39 241.5 404.72 222.41 405.55 216.07" stroke-dasharray="10 7" transform="rotate(36.36, 400, 400)" opacity="0.39"></path><path d="M410.18 226.55C411.45 217 423.87 213.57 431.38 220.66Q440.18 229.48 448.25 238.31 455.48 247.16 461.78 256.06 467.08 265 471.37 274.02 474.65 283.11 476.95 292.31 478.34 301.61 478.94 311.03 478.87 320.59 478.29 330.3 477.38 340.16 476.32 350.19 475.33 360.39 474.6 370.77 474.33 381.35 474.71 392.11 475.91 403.06 478.07 414.21 481.31 425.55 485.72 437.09 491.33 448.81 498.17 460.72 506.19 472.8 515.32 485.05 525.46 497.45 536.47 510 548.15 522.69 560.32 535.49 572.75 548.39 585.21 561.37C594.07 570.77 594.04 576.73 585.39 572.42Q574.73 567.25 564.07 562.38 553.4 557.94 542.74 554.06 532.08 550.86 521.41 548.41 510.75 546.8 500.09 546.07 489.42 546.23 478.76 547.29 468.1 549.21 457.43 551.94 446.77 555.41 436.11 559.5 425.45 564.12 414.78 569.12 404.12 574.36 393.46 579.69 382.79 584.97 372.13 590.05 361.47 594.77 350.8 599 340.14 602.63 329.48 605.55 318.82 607.68 308.15 608.96 297.49 609.35 286.83 608.83 276.17 607.44 265.5 605.2 254.84 602.17 244.18 598.45C235.53 595 227.65 583.64 229.4 577.65Q231.62 569.19 233.66 560.55 235.64 551.72 237.65 542.69 239.8 533.45 242.21 524.01 244.98 514.35 248.19 504.49 251.94 494.42 256.29 484.13 261.29 473.65 266.97 462.97 273.33 452.11 280.35 441.06 288 429.85 296.2 418.47 304.88 406.96 313.93 395.3 323.23 383.53 332.66 371.66 342.06 359.7 351.3 347.66 360.24 335.56 368.74 323.42 376.67 311.25 383.94 299.08 390.44 286.9 396.12 274.74 400.93 262.61 404.86 250.53 409.05 232.53 410.18 226.55" stroke-dasharray="2 6" transform="rotate(40.400000000000006, 400, 400)" opacity="0.43"></path><path d="M414.12 237.02C415.88 228.05 427.63 224.77 434.15 231.38Q441.69 239.61 448.5 247.86 454.5 256.12 459.66 264.42 463.93 272.76 467.32 281.15 471.19 298.21 472.86 315.54 472.66 324.39 472.07 333.37 471.23 342.47 470.31 351.72 469.47 361.12 468.86 370.67 468.67 380.39 469.03 390.27 470.09 400.32 471.96 410.54 474.76 420.93 478.55 431.5 483.38 442.24 489.27 453.15 496.21 464.23 504.16 475.47 513.05 486.86 522.77 498.4 533.2 510.07 544.19 521.88 555.57 533.8 567.16 545.82C575.53 554.53 575.85 560.14 567.84 556.27Q557.96 551.76 548.08 547.61 538.2 543.93 528.32 540.82 518.44 538.35 508.56 536.59 498.68 535.58 488.8 535.34 478.92 535.89 469.04 537.19 459.16 539.24 449.29 541.96 439.41 545.3 429.53 549.18 419.65 553.48 409.77 558.12 399.89 562.96 390.01 567.9 380.13 572.8 370.25 577.55 360.37 582.02 350.49 586.11 340.61 589.7 330.73 592.73 320.85 595.09 310.97 596.75 301.09 597.65 291.22 597.78 281.34 597.12 271.46 595.7 261.58 593.56 251.7 590.74C243.68 588.01 236.09 577.62 237.51 571.77Q241.16 554.95 244.87 537.6 246.99 528.6 249.4 519.41 252.19 510.03 255.42 500.47 259.16 490.72 263.46 480.8 268.35 470.71 273.86 460.45 279.97 450.03 286.67 439.47 293.92 428.76 301.67 417.93 309.85 406.98 318.36 395.92 327.12 384.77 336.01 373.54 344.91 362.24 353.71 350.88 362.29 339.49 370.53 328.06 378.33 316.61 385.57 305.16 392.19 293.71 398.11 282.29 403.28 270.9 407.67 259.55 412.7 242.64 414.12 237.02" stroke-dasharray="7 4" transform="rotate(44.44, 400, 400)" opacity="0.47"></path><path d="M417.27 247.5C419.51 239.1 430.57 235.96 436.08 242.11Q442.37 249.77 447.96 257.43 456.56 272.83 462.88 288.34 465.69 304.13 466.73 320.14 465.78 336.62 464.32 353.43 463.61 362.05 463.13 370.79 463 379.68 463.34 388.7 464.27 397.87 465.89 407.19 468.28 416.66 471.51 426.29 475.63 436.07 480.65 446 486.59 456.08 493.42 466.31 501.1 476.69 509.57 487.21 518.73 497.86 528.49 508.65 538.71 519.55 549.27 530.58C557 538.57 557.45 543.9 550.06 540.57Q540.96 536.76 531.85 533.36 522.75 530.44 513.64 528.06 504.54 526.29 495.43 525.14 486.33 524.66 477.23 524.85 468.12 525.7 459.02 527.21 449.91 529.33 440.81 532.01 431.7 535.21 422.6 538.85 413.5 542.85 404.39 547.13 395.29 551.59 386.18 556.13 377.08 560.66 367.98 565.08 358.87 569.28 349.77 573.19 340.66 576.71 331.56 579.77 322.45 582.29 313.35 584.24 304.25 585.56 295.14 586.22 286.04 586.22 276.93 585.54 267.83 584.22 258.73 582.26C251.34 580.24 244.15 570.84 245.33 565.13Q248.59 548.73 252.14 531.84 254.26 523.1 256.7 514.2 259.51 505.14 262.76 495.93 266.48 486.55 270.71 477.03 275.48 467.37 280.79 457.57 286.63 447.65 293 437.6 299.85 427.45 307.14 417.19 314.8 406.83 322.78 396.4 330.98 385.89 339.31 375.33 347.7 364.71 356.03 354.05 364.2 343.36 372.13 332.65 379.71 321.93 386.86 311.21 393.5 300.51 399.57 289.83 405.01 279.18 409.79 268.57 415.58 252.75 417.27 247.5" stroke-dasharray="7 2" transform="rotate(48.48, 400, 400)" opacity="0.51"></path><path d="M419.54 257.95C422.22 250.14 432.55 247.16 437.07 252.85Q446.31 267.02 453.64 281.23 457.81 295.59 460.26 310.08 460.42 324.87 459.69 339.89 458.4 355.36 457.4 371.14 457.89 387.48 459.85 404.19 461.88 412.77 464.61 421.48 468.08 430.32 472.31 439.3 477.33 448.41 483.13 457.65 489.67 467.03 496.93 476.53 504.84 486.17 513.34 495.93 522.35 505.8 531.76 515.8C538.72 523.06 539.1 528.15 532.33 525.4Q515.64 519.67 498.96 515.78 482.28 514.04 465.59 514.56 448.91 517.3 432.23 522.07 415.54 528.51 398.86 536.13 382.18 544.37 365.49 552.6 348.81 560.23 332.12 566.66 315.44 571.43 298.76 574.18 282.07 574.69 265.39 572.94C258.62 571.61 251.9 563.2 252.93 557.64Q255.99 541.73 259.49 525.38 261.65 516.95 264.13 508.39 266.97 499.7 270.22 490.87 273.91 481.92 278.05 472.85 282.67 463.66 287.77 454.37 293.33 444.97 299.35 435.48 305.78 425.9 312.6 416.25 319.75 406.52 327.17 396.74 334.81 386.9 342.59 377.01 350.43 367.09 358.25 357.14 365.98 347.17 373.54 337.19 380.84 327.21 387.81 317.23 394.39 307.27 400.51 297.34 406.12 287.43 411.18 277.56 417.6 262.84 419.54 257.95" stroke-dasharray="6 5" transform="rotate(52.52, 400, 400)" opacity="0.54"></path><path d="M420.88 268.41C423.93 261.17 433.48 258.37 437.07 263.6Q444.51 276.63 449.78 289.69 452.99 302.84 454.39 316.13 454.4 329.62 453.54 343.34 452.41 357.36 451.67 371.7 451.96 386.42 453.86 401.53 457.84 417.08 464.26 433.07 473.27 449.52 484.88 466.44 498.86 483.81 514.82 501.63C520.95 508.15 521.09 513.04 514.93 510.87Q499.73 506.59 484.54 504 469.34 503.27 454.15 504.46 438.95 507.48 423.75 512.15 408.56 518.16 393.36 525.13 378.17 532.63 362.97 540.16 347.77 547.25 332.58 553.45 317.38 558.36 302.19 561.67 286.99 563.17 271.79 562.77C265.63 562.06 259.48 554.63 260.42 549.25Q263.33 533.96 266.97 518.19 271.7 501.96 277.81 485.3 285.48 468.24 294.79 450.83 305.7 433.11 318.05 415.13 331.55 396.94 345.82 378.6 360.4 360.17 374.77 341.69 388.45 323.23 400.94 304.83 411.85 286.54 420.88 268.41 420.88 268.41 420.88 268.41" stroke-dasharray="1 1" transform="rotate(56.56, 400, 400)" opacity="0.58"></path><path d="M421.24 278.85C424.57 272.21 433.33 269.58 436.07 274.35Q441.63 286.24 445.43 298.16 447.61 310.15 448.42 322.24 448.22 334.49 447.42 346.92 446.5 359.57 445.95 372.49 446.26 385.69 447.88 399.22 451.18 413.1 456.45 427.34 463.85 441.96 473.43 456.97 485.09 472.38 498.6 488.18C503.85 493.97 503.69 498.68 498.11 497.09Q484.36 494.15 470.61 492.71 456.86 492.85 443.11 494.56 429.36 497.75 415.61 502.25 401.86 507.81 388.11 514.15 374.36 520.91 360.61 527.74 346.86 534.27 333.11 540.15 319.36 545.07 305.61 548.76 291.86 551.02 278.11 551.73C272.54 551.57 267.01 545.07 267.93 539.91Q270.89 525.3 274.65 510.3 279.48 494.94 285.56 479.25 293.01 463.25 301.87 446.99 312.08 430.5 323.51 413.83 335.93 397.02 349.03 380.1 362.47 363.13 375.86 346.14 388.79 329.18 400.89 312.29 411.8 295.5 421.24 278.85 421.24 278.85 421.24 278.85" stroke-dasharray="8 6" transform="rotate(60.599999999999994, 400, 400)" opacity="0.62"></path><path d="M420.64 289.28C424.13 283.23 432.09 280.79 434.08 285.11Q438.04 295.88 440.63 306.66 442 317.5 442.38 328.41 442.05 339.44 441.34 350.61 440.62 361.95 440.24 373.49 440.57 385.25 441.94 397.26 444.64 409.54 448.9 422.11 454.86 434.99 462.61 448.18 472.11 461.7 483.25 475.55C487.63 480.61 487.11 485.13 482.1 484.08Q469.75 482.35 457.4 481.89 445.05 482.73 432.7 484.82 420.35 488.07 408 492.34 395.65 497.45 383.29 503.15 370.94 509.2 358.59 515.34 346.24 521.29 333.89 526.78 321.54 531.57 309.19 535.45 296.84 538.26 284.49 539.85C279.48 540.13 274.63 534.52 275.58 529.63Q278.66 515.82 282.57 501.72 287.46 487.35 293.46 472.73 300.64 457.89 308.99 442.87 318.47 427.69 328.96 412.38 340.28 396.98 352.21 381.52 364.48 366.04 376.8 350.56 388.87 335.11 400.38 319.73 411.05 304.45 420.64 289.28 420.64 289.28 420.64 289.28" stroke-dasharray="1 1" transform="rotate(64.64, 400, 400)" opacity="0.66"></path><path d="M419.11 299.71C422.65 294.26 429.79 292.01 431.15 295.89Q433.8 305.54 435.42 315.2 436.19 324.9 436.27 334.65 435.89 344.49 435.3 354.43 434.75 364.49 434.52 374.7 434.86 385.08 436.02 395.64 438.19 406.41 441.57 417.39 446.28 428.61 452.4 440.08 459.94 451.8 468.87 463.79C472.41 468.17 471.53 472.47 467.07 471.9Q456.07 471.21 445.07 471.55 434.08 472.91 423.08 475.25 412.08 478.47 401.08 482.46 390.09 487.08 379.09 492.16 368.09 497.52 357.09 502.97 346.1 508.32 335.1 513.36 324.1 517.91 313.1 521.83 302.11 524.95 291.11 527.18C286.64 527.81 282.5 523.01 283.5 518.43Q286.76 505.57 290.79 492.5 295.7 479.23 301.55 465.79 308.38 452.21 316.18 438.5 324.88 424.68 334.41 410.79 344.62 396.85 355.36 382.88 366.43 368.9 377.62 354.94 388.7 341.02 399.46 327.17 414.39 306.55 419.11 299.71" stroke-dasharray="4 2" transform="rotate(68.68, 400, 400)" opacity="0.70"></path><path d="M416.74 310.13C420.21 305.26 426.49 303.23 427.37 306.67Q429.61 323.77 430.14 340.95 429.77 349.61 429.3 358.36 428.92 367.18 428.81 376.12 429.15 385.17 430.11 394.35 431.84 403.68 434.47 413.17 438.1 422.83 442.8 432.67 448.61 442.7 455.53 452.94C458.3 456.68 457.09 460.71 453.17 460.54Q443.48 460.69 433.79 461.64 424.1 463.36 414.41 465.8 404.72 468.9 395.03 472.57 385.34 476.69 375.64 481.16 365.95 485.86 356.26 490.63 346.57 495.35 336.88 499.89 327.19 504.12 317.5 507.91 307.81 511.16 298.12 513.77C294.19 514.63 290.75 510.6 291.83 506.39Q295.24 494.6 299.35 482.68 304.19 470.63 309.82 458.47 316.23 446.22 323.41 433.89 331.31 421.5 339.86 409.07 348.96 396.62 358.5 384.16 368.34 371.71 378.34 359.28 388.34 346.9 398.18 334.57 412.22 316.22 416.74 310.13" stroke-dasharray="8 8" transform="rotate(72.72, 400, 400)" opacity="0.73"></path><path d="M413.61 320.55C416.88 316.28 422.33 314.47 422.83 317.46Q423.95 332.36 424.01 347.3 423.41 362.42 423.11 377.72 424.51 393.42 427.57 409.42 430.29 417.61 433.79 425.93 438.11 434.39 443.28 442.99C445.34 446.13 443.9 449.86 440.48 450.01Q423.63 452.42 406.79 456.49 398.36 459.39 389.94 462.68 381.52 466.31 373.09 470.18 364.67 474.21 356.25 478.33 347.82 482.43 339.4 486.42 330.98 490.23 322.55 493.77 314.13 496.96 305.7 499.73C302.28 500.72 299.52 497.36 300.65 493.57Q304.18 483 308.27 472.35 312.97 461.62 318.28 450.83 324.2 439.98 330.7 429.1 337.75 418.18 345.3 407.25 353.28 396.32 361.62 385.39 370.22 374.48 378.99 363.6 387.82 352.76 396.61 341.96 409.42 325.89 413.61 320.55" stroke-dasharray="9 1" transform="rotate(76.76, 400, 400)" opacity="0.77"></path><path d="M409.86 330.95C412.81 327.29 417.44 325.7 417.68 328.25Q418.18 340.96 417.92 353.7 417.46 366.53 417.41 379.51 418.37 392.68 420.86 406.11 425.33 419.84 432.08 433.92C433.55 436.5 431.96 439.87 429.05 440.23Q414.67 443 400.29 447.28 385.9 452.79 371.52 459.18 357.14 466.05 342.76 472.95 328.37 479.45 313.99 485.14C311.08 486.16 308.95 483.41 310.11 480.1Q317.62 461.58 326.94 442.9 338.04 424.14 350.73 405.35 364.72 386.58 379.57 367.89 394.8 349.33 409.86 330.95 409.86 330.95 409.86 330.95" stroke-dasharray="1 4" transform="rotate(80.80000000000001, 400, 400)" opacity="0.81"></path><path d="M405.63 341.34C408.17 338.28 411.99 336.94 412.07 339.06Q412.14 349.6 411.87 360.16 411.62 370.77 411.72 381.46 412.51 392.27 414.31 403.22 417.38 414.34 421.93 425.68C422.91 427.74 421.29 430.68 418.86 431.16Q406.9 434.18 394.93 438.15 382.96 442.89 370.99 448.18 359.02 453.8 347.06 459.5 335.09 465.02 323.12 470.12C320.69 471.09 319.14 468.9 320.28 466.09Q327.4 450.46 335.81 434.77 345.44 419.07 356.17 403.37 367.81 387.72 380.13 372.15 392.84 356.68 405.63 341.34 405.63 341.34 405.63 341.34" stroke-dasharray="3 9" transform="rotate(84.84, 400, 400)" opacity="0.85"></path><path d="M401.08 351.74C403.16 349.28 406.16 348.19 406.17 349.88Q405.95 366.7 406.03 383.58 406.66 392.1 407.9 400.7 409.88 409.38 412.73 418.17C413.34 419.77 411.81 422.22 409.88 422.74Q400.29 425.65 390.7 429.1 381.11 432.99 371.52 437.2 361.93 441.61 352.35 446.11 342.76 450.55 333.17 454.83C331.23 455.66 330.16 453.97 331.23 451.69Q337.65 439.1 344.89 426.5 352.9 413.91 361.6 401.35 370.9 388.84 380.68 376.39 395.93 357.88 401.08 351.74" stroke-dasharray="7 3" transform="rotate(88.88, 400, 400)" opacity="0.89"></path><path d="M396.39 362.12C397.95 360.28 400.17 359.44 400.17 360.7Q400.04 373.25 400.34 385.83 401.62 398.49 404.39 411.3C404.74 412.47 403.44 414.36 401.97 414.84Q387.53 420.1 373.1 426.2 358.66 432.75 344.21 439.35C342.74 440 342.08 438.77 343 437.05Q354.18 418.13 367.03 399.3 381.25 380.62 396.39 362.12 396.39 362.12 396.39 362.12" stroke-dasharray="6 2" transform="rotate(92.92, 400, 400)" opacity="0.92"></path><path d="M391.74 372.5C392.76 371.26 394.23 370.69 394.23 371.53Q394.87 388.21 396.82 404.94C396.97 405.7 396.01 407.01 395.03 407.37Q385.34 411.13 375.65 415.21 365.96 419.49 356.26 423.84C355.28 424.28 354.93 423.47 355.61 422.33Q363.68 409.76 372.46 397.25 386.8 378.66 391.74 372.5" stroke-dasharray="9 2" transform="rotate(96.96, 400, 400)" opacity="0.96"></path></g></svg>