<svg
          xmlns="http://www.w3.org/2000/svg"
          class="is-none--lt-container"
          viewBox="0 0 621.64 155.81"
          width="140px"
          focusable="false"
          role="img">
          <path
            fill="var(--theme-color--brand)"
            d="M103.37 56.51C96.91 63.64 87.03 69.9 74.6 69.9c-20.14 0-33.52-12.91-33.52-34.09C41.08 13.97 57.5.87 69.94.87c9.5 0 13.77 5.32 14.63 6.46l2.18-5.27h14.91v27h-17c-.28-6.18-3.32-12-10.06-12s-11.3 8.45-11.3 18.8c0 9.4 4.84 17.86 13.86 17.86 8 0 14.24-8.36 15.1-9.31Zm2.88-21.85C106.25 14.15 119.92 0 139.58 0c23.26 0 34.09 14 34.09 35.32s-12 34.57-33.43 34.57c-19.88 0-33.99-11.49-33.99-35.23Zm43.68.66c0-11.49-3.13-20.7-10.45-20.7-5.79-.09-9.78 8.26-9.78 20 0 12.44 4.47 20.32 10.54 20.32s9.65-7.88 9.65-19.62Zm27.49 20.23h5.89V14.34h-5.89V1.8h29c23 0 36.09 14.15 36.09 32.29 0 21.65-13.11 34.09-36.47 34.09h-28.62Zm29 0c10.03-.19 14.21-9.59 14.21-21.49 0-10.16-4.18-19.75-14.25-19.75h-3.61v41.24ZM303.04 1.8v21h-16.43v-8.46h-15.19v13.1h18v12.62h-18v15.49h15.19v-8.83h16.43v21.46h-57.26V55.55h6V14.34h-6V1.8Z" />
          <path
            fill="var(--theme-color--ink)"
            d="M274.42 87.82v21h-16.8v-8.45h-14.37v16.52h18v12.63h-18v12.04h9.68v12.63h-35.29v-12.63h5.89v-41.21h-5.89V87.82Zm33.04 0v12.24h-5.12v20.51c0 15.28 3.41 18.51 9.49 18.51 5.79 0 9.59-2.28 9.59-18.61v-20.12h-5.17V87.82h28.11v12.24h-5.11v23.07c0 22.51-9.4 32.67-27.25 32.67-19.18-.57-29.43-10.64-29.43-32.19v-23.45h-5.32V87.82Zm103.5 24.69h-14v-12.16h-8v41.21h7.88v12.63h-35.26v-12.63h7.79v-41.21h-8.12v12.16h-14V87.82h63.71ZM444 87.82v12.24h-5.13v20.51c0 15.28 3.42 18.51 9.5 18.51 5.79 0 9.59-2.28 9.59-18.61v-20.12h-5.13V87.82h28.11v12.24h-5.13v23.07c0 22.51-9.4 32.67-27.25 32.67-19.18-.57-29.44-10.64-29.44-32.19v-23.45h-5.32V87.82Zm71.59 0c22 0 26.3 8.73 26.3 19.56 0 7.4-5.88 12.63-13.76 13.77 6.55.95 12.44 6.64 12.44 13.48 0 4.08.57 6.46 2.27 6.46 1.43 0 2.19-1.14 2.19-3v-3.13h6.36v5.22c0 7.88-3.32 15.19-13.86 15.19-12.44 0-18.42-6.55-18.42-17.66 0-8.64-1.05-10.73-9.5-10.73v14.68h5.79v12.53h-30.67v-12.53h5.32v-41.4h-5.32V87.82Zm-6 28.48h4.27c5.51 0 9.12-2.65 9.12-7.69 0-5.6-3.13-8.45-8.64-8.45h-4.75Zm102.38-28.48v21h-16.43v-8.45h-15.19v13.09h18v12.6h-18v15.5h15.19v-8.83h16.43v21.46h-57.26v-12.63h6v-41.21h-6V87.82Zm-227.72-56.1c.38-1.9 2.47-5.89 3.51-8.17l5.22-9.59h-5.22V1.8h25.54v12.16h-5.05l-17.62 30.86v11h5.32v12.36h-30.39V55.83h5.41v-11.2l-18.42-30.67h-4.65V1.8h32.47v12.16h-4.93l5.5 10.1c.57 1.81 2.57 6.08 2.95 7.7Zm29.54 2.94C413.79 14.15 427.47 0 447.12 0c23.27 0 34.09 14 34.09 35.32s-12 34.57-33.42 34.57c-19.85 0-34-11.49-34-35.23Zm43.68.66c0-11.49-3.13-20.7-10.44-20.7-5.79-.09-9.78 8.26-9.78 20 0 12.44 4.46 20.32 10.54 20.32s9.68-7.88 9.68-19.62ZM514.25 1.8v12.26h-5.13v20.5c0 15.29 3.42 18.52 9.5 18.52 5.79 0 9.59-2.28 9.59-18.61V14.34h-5.13V1.8h28.11v12.26h-5.13v23.07c0 22.5-9.4 32.66-27.25 32.66-19.18-.57-29.44-10.63-29.44-32.19V14.15h-5.32V1.8Zm71.59 0c22 0 26.31 8.74 26.31 19.57 0 7.4-5.89 12.62-13.77 13.76 6.55 1 12.44 6.65 12.44 13.49 0 4.08.57 6.46 2.27 6.46 1.43 0 2.19-1.14 2.19-3V48.9h6.36v5.23c0 7.88-3.32 15.19-13.86 15.19-12.44 0-18.42-6.55-18.42-17.66 0-8.64-1.05-10.73-9.5-10.73v14.71h5.79v12.54h-30.67V55.64h5.32v-41.4h-5.32V1.8Zm-6 28.49h4.27c5.51 0 9.12-2.66 9.12-7.69 0-5.6-3.13-8.45-8.64-8.45h-4.75ZM28.39 14.7l5.8 10.64-23.46 10.72 23.46 10.55-3.61 9.87L0 42.24v-13.3Zm318.7 14.24v13.3l-30.58 14.24-3.61-9.87 23.46-10.55-23.46-10.72 5.8-10.64Z" />
        </svg>